<svg width="400" height="400" viewBox="0 0 400 400" xmlns="http://www.w3.org/2000/svg">
<rect x="0" y="0" width="400" height="400" opacity="0.81" fill="#FFFFFF" stroke="none"/>
<line opacity="0.1" stroke="#000000" stroke-width="1" x1="30" y1="369" x2="30" y2="10"/>
<line opacity="0.1" stroke="#000000" stroke-width="1" x1="35" y1="369" x2="35" y2="10"/>
<line opacity="0.1" stroke="#000000" stroke-width="1" x1="41" y1="369" x2="41" y2="10"/>
<line opacity="0.1" stroke="#000000" stroke-width="1" x1="47" y1="369" x2="47" y2="10"/>
<line opacity="0.1" stroke="#000000" stroke-width="1" x1="53" y1="369" x2="53" y2="10"/>
<line opacity="0.1" stroke="#000000" stroke-width="1" x1="59" y1="369" x2="59" y2="10"/>
<line opacity="0.1" stroke="#000000" stroke-width="1" x1="65" y1="369" x2="65" y2="10"/>
<line opacity="0.1" stroke="#000000" stroke-width="1" x1="71" y1="369" x2="71" y2="10"/>
<line opacity="0.1" stroke="#000000" stroke-width="1" x1="77" y1="369" x2="77" y2="10"/>
<line opacity="0.1" stroke="#000000" stroke-width="1" x1="83" y1="369" x2="83" y2="10"/>
<line opacity="0.1" stroke="#000000" stroke-width="1" x1="89" y1="369" x2="89" y2="10"/>
<line opacity="0.1" stroke="#000000" stroke-width="1" x1="95" y1="369" x2="95" y2="10"/>
<line opacity="0.1" stroke="#000000" stroke-width="1" x1="101" y1="369" x2="101" y2="10"/>
<line opacity="0.1" stroke="#000000" stroke-width="1" x1="107" y1="369" x2="107" y2="10"/>
<line opacity="0.1" stroke="#000000" stroke-width="1" x1="113" y1="369" x2="113" y2="10"/>
<line opacity="0.1" stroke="#000000" stroke-width="1" x1="119" y1="369" x2="119" y2="10"/>
<line opacity="0.1" stroke="#000000" stroke-width="1" x1="125" y1="369" x2="125" y2="10"/>
<line opacity="0.1" stroke="#000000" stroke-width="1" x1="131" y1="369" x2="131" y2="10"/>
<line opacity="0.1" stroke="#000000" stroke-width="1" x1="137" y1="369" x2="137" y2="10"/>
<line opacity="0.1" stroke="#000000" stroke-width="1" x1="143" y1="369" x2="143" y2="10"/>
<line opacity="0.1" stroke="#000000" stroke-width="1" x1="149" y1="369" x2="149" y2="10"/>
<line opacity="0.1" stroke="#000000" stroke-width="1" x1="155" y1="369" x2="155" y2="10"/>
<line opacity="0.1" stroke="#000000" stroke-width="1" x1="161" y1="369" x2="161" y2="10"/>
<line opacity="0.1" stroke="#000000" stroke-width="1" x1="167" y1="369" x2="167" y2="10"/>
<line opacity="0.1" stroke="#000000" stroke-width="1" x1="173" y1="369" x2="173" y2="10"/>
<line opacity="0.1" stroke="#000000" stroke-width="1" x1="179" y1="369" x2="179" y2="10"/>
<line opacity="0.1" stroke="#000000" stroke-width="1" x1="185" y1="369" x2="185" y2="10"/>
<line opacity="0.1" stroke="#000000" stroke-width="1" x1="191" y1="369" x2="191" y2="10"/>
<line opacity="0.1" stroke="#000000" stroke-width="1" x1="197" y1="369" x2="197" y2="10"/>
<line opacity="0.1" stroke="#000000" stroke-width="1" x1="203" y1="369" x2="203" y2="10"/>
<line opacity="0.1" stroke="#000000" stroke-width="1" x1="209" y1="369" x2="209" y2="10"/>
<line opacity="0.1" stroke="#000000" stroke-width="1" x1="215" y1="369" x2="215" y2="10"/>
<line opacity="0.1" stroke="#000000" stroke-width="1" x1="221" y1="369" x2="221" y2="10"/>
<line opacity="0.1" stroke="#000000" stroke-width="1" x1="227" y1="369" x2="227" y2="10"/>
<line opacity="0.1" stroke="#000000" stroke-width="1" x1="233" y1="369" x2="233" y2="10"/>
<line opacity="0.1" stroke="#000000" stroke-width="1" x1="239" y1="369" x2="239" y2="10"/>
<line opacity="0.1" stroke="#000000" stroke-width="1" x1="245" y1="369" x2="245" y2="10"/>
<line opacity="0.1" stroke="#000000" stroke-width="1" x1="251" y1="369" x2="251" y2="10"/>
<line opacity="0.1" stroke="#000000" stroke-width="1" x1="257" y1="369" x2="257" y2="10"/>
<line opacity="0.1" stroke="#000000" stroke-width="1" x1="263" y1="369" x2="263" y2="10"/>
<line opacity="0.1" stroke="#000000" stroke-width="1" x1="269" y1="369" x2="269" y2="10"/>
<line opacity="0.1" stroke="#000000" stroke-width="1" x1="275" y1="369" x2="275" y2="10"/>
<line opacity="0.1" stroke="#000000" stroke-width="1" x1="281" y1="369" x2="281" y2="10"/>
<line opacity="0.1" stroke="#000000" stroke-width="1" x1="287" y1="369" x2="287" y2="10"/>
<line opacity="0.1" stroke="#000000" stroke-width="1" x1="293" y1="369" x2="293" y2="10"/>
<line opacity="0.1" stroke="#000000" stroke-width="1" x1="299" y1="369" x2="299" y2="10"/>
<line opacity="0.1" stroke="#000000" stroke-width="1" x1="305" y1="369" x2="305" y2="10"/>
<line opacity="0.1" stroke="#000000" stroke-width="1" x1="311" y1="369" x2="311" y2="10"/>
<line opacity="0.1" stroke="#000000" stroke-width="1" x1="317" y1="369" x2="317" y2="10"/>
<line opacity="0.1" stroke="#000000" stroke-width="1" x1="323" y1="369" x2="323" y2="10"/>
<line opacity="0.1" stroke="#000000" stroke-width="1" x1="329" y1="369" x2="329" y2="10"/>
<line opacity="0.1" stroke="#000000" stroke-width="1" x1="335" y1="369" x2="335" y2="10"/>
<line opacity="0.1" stroke="#000000" stroke-width="1" x1="341" y1="369" x2="341" y2="10"/>
<line opacity="0.1" stroke="#000000" stroke-width="1" x1="347" y1="369" x2="347" y2="10"/>
<line opacity="0.1" stroke="#000000" stroke-width="1" x1="353" y1="369" x2="353" y2="10"/>
<line opacity="0.1" stroke="#000000" stroke-width="1" x1="359" y1="369" x2="359" y2="10"/>
<line opacity="0.1" stroke="#000000" stroke-width="1" x1="365" y1="369" x2="365" y2="10"/>
<line opacity="0.1" stroke="#000000" stroke-width="1" x1="371" y1="369" x2="371" y2="10"/>
<line opacity="0.1" stroke="#000000" stroke-width="1" x1="377" y1="369" x2="377" y2="10"/>
<line opacity="0.1" stroke="#000000" stroke-width="1" x1="383" y1="369" x2="383" y2="10"/>
<line opacity="0.1" stroke="#000000" stroke-width="1" x1="389" y1="369" x2="389" y2="10"/>
<line opacity="0.1" stroke="#000000" stroke-width="1" x1="30" y1="369" x2="389" y2="369"/>
<line opacity="0.1" stroke="#000000" stroke-width="1" x1="30" y1="364" x2="389" y2="364"/>
<line opacity="0.1" stroke="#000000" stroke-width="1" x1="30" y1="358" x2="389" y2="358"/>
<line opacity="0.1" stroke="#000000" stroke-width="1" x1="30" y1="352" x2="389" y2="352"/>
<line opacity="0.1" stroke="#000000" stroke-width="1" x1="30" y1="346" x2="389" y2="346"/>
<line opacity="0.1" stroke="#000000" stroke-width="1" x1="30" y1="340" x2="389" y2="340"/>
<line opacity="0.1" stroke="#000000" stroke-width="1" x1="30" y1="334" x2="389" y2="334"/>
<line opacity="0.1" stroke="#000000" stroke-width="1" x1="30" y1="328" x2="389" y2="328"/>
<line opacity="0.1" stroke="#000000" stroke-width="1" x1="30" y1="322" x2="389" y2="322"/>
<line opacity="0.1" stroke="#000000" stroke-width="1" x1="30" y1="316" x2="389" y2="316"/>
<line opacity="0.1" stroke="#000000" stroke-width="1" x1="30" y1="310" x2="389" y2="310"/>
<line opacity="0.1" stroke="#000000" stroke-width="1" x1="30" y1="304" x2="389" y2="304"/>
<line opacity="0.1" stroke="#000000" stroke-width="1" x1="30" y1="298" x2="389" y2="298"/>
<line opacity="0.1" stroke="#000000" stroke-width="1" x1="30" y1="292" x2="389" y2="292"/>
<line opacity="0.1" stroke="#000000" stroke-width="1" x1="30" y1="286" x2="389" y2="286"/>
<line opacity="0.1" stroke="#000000" stroke-width="1" x1="30" y1="280" x2="389" y2="280"/>
<line opacity="0.1" stroke="#000000" stroke-width="1" x1="30" y1="274" x2="389" y2="274"/>
<line opacity="0.1" stroke="#000000" stroke-width="1" x1="30" y1="268" x2="389" y2="268"/>
<line opacity="0.1" stroke="#000000" stroke-width="1" x1="30" y1="262" x2="389" y2="262"/>
<line opacity="0.1" stroke="#000000" stroke-width="1" x1="30" y1="256" x2="389" y2="256"/>
<line opacity="0.1" stroke="#000000" stroke-width="1" x1="30" y1="250" x2="389" y2="250"/>
<line opacity="0.1" stroke="#000000" stroke-width="1" x1="30" y1="244" x2="389" y2="244"/>
<line opacity="0.1" stroke="#000000" stroke-width="1" x1="30" y1="238" x2="389" y2="238"/>
<line opacity="0.1" stroke="#000000" stroke-width="1" x1="30" y1="232" x2="389" y2="232"/>
<line opacity="0.1" stroke="#000000" stroke-width="1" x1="30" y1="226" x2="389" y2="226"/>
<line opacity="0.1" stroke="#000000" stroke-width="1" x1="30" y1="220" x2="389" y2="220"/>
<line opacity="0.1" stroke="#000000" stroke-width="1" x1="30" y1="214" x2="389" y2="214"/>
<line opacity="0.1" stroke="#000000" stroke-width="1" x1="30" y1="208" x2="389" y2="208"/>
<line opacity="0.1" stroke="#000000" stroke-width="1" x1="30" y1="202" x2="389" y2="202"/>
<line opacity="0.1" stroke="#000000" stroke-width="1" x1="30" y1="196" x2="389" y2="196"/>
<line opacity="0.1" stroke="#000000" stroke-width="1" x1="30" y1="190" x2="389" y2="190"/>
<line opacity="0.1" stroke="#000000" stroke-width="1" x1="30" y1="184" x2="389" y2="184"/>
<line opacity="0.1" stroke="#000000" stroke-width="1" x1="30" y1="178" x2="389" y2="178"/>
<line opacity="0.1" stroke="#000000" stroke-width="1" x1="30" y1="172" x2="389" y2="172"/>
<line opacity="0.1" stroke="#000000" stroke-width="1" x1="30" y1="166" x2="389" y2="166"/>
<line opacity="0.1" stroke="#000000" stroke-width="1" x1="30" y1="160" x2="389" y2="160"/>
<line opacity="0.1" stroke="#000000" stroke-width="1" x1="30" y1="154" x2="389" y2="154"/>
<line opacity="0.1" stroke="#000000" stroke-width="1" x1="30" y1="148" x2="389" y2="148"/>
<line opacity="0.1" stroke="#000000" stroke-width="1" x1="30" y1="142" x2="389" y2="142"/>
<line opacity="0.1" stroke="#000000" stroke-width="1" x1="30" y1="136" x2="389" y2="136"/>
<line opacity="0.1" stroke="#000000" stroke-width="1" x1="30" y1="130" x2="389" y2="130"/>
<line opacity="0.1" stroke="#000000" stroke-width="1" x1="30" y1="124" x2="389" y2="124"/>
<line opacity="0.1" stroke="#000000" stroke-width="1" x1="30" y1="118" x2="389" y2="118"/>
<line opacity="0.1" stroke="#000000" stroke-width="1" x1="30" y1="112" x2="389" y2="112"/>
<line opacity="0.1" stroke="#000000" stroke-width="1" x1="30" y1="106" x2="389" y2="106"/>
<line opacity="0.1" stroke="#000000" stroke-width="1" x1="30" y1="100" x2="389" y2="100"/>
<line opacity="0.1" stroke="#000000" stroke-width="1" x1="30" y1="94" x2="389" y2="94"/>
<line opacity="0.1" stroke="#000000" stroke-width="1" x1="30" y1="88" x2="389" y2="88"/>
<line opacity="0.1" stroke="#000000" stroke-width="1" x1="30" y1="82" x2="389" y2="82"/>
<line opacity="0.1" stroke="#000000" stroke-width="1" x1="30" y1="76" x2="389" y2="76"/>
<line opacity="0.1" stroke="#000000" stroke-width="1" x1="30" y1="70" x2="389" y2="70"/>
<line opacity="0.1" stroke="#000000" stroke-width="1" x1="30" y1="64" x2="389" y2="64"/>
<line opacity="0.1" stroke="#000000" stroke-width="1" x1="30" y1="58" x2="389" y2="58"/>
<line opacity="0.1" stroke="#000000" stroke-width="1" x1="30" y1="52" x2="389" y2="52"/>
<line opacity="0.1" stroke="#000000" stroke-width="1" x1="30" y1="46" x2="389" y2="46"/>
<line opacity="0.1" stroke="#000000" stroke-width="1" x1="30" y1="40" x2="389" y2="40"/>
<line opacity="0.1" stroke="#000000" stroke-width="1" x1="30" y1="34" x2="389" y2="34"/>
<line opacity="0.1" stroke="#000000" stroke-width="1" x1="30" y1="28" x2="389" y2="28"/>
<line opacity="0.1" stroke="#000000" stroke-width="1" x1="30" y1="22" x2="389" y2="22"/>
<line opacity="0.1" stroke="#000000" stroke-width="1" x1="30" y1="16" x2="389" y2="16"/>
<line opacity="0.1" stroke="#000000" stroke-width="1" x1="30" y1="10" x2="389" y2="10"/>
<line opacity="0.2" stroke="#000000" stroke-width="1" x1="30" y1="369" x2="30" y2="10"/>
<line opacity="0.2" stroke="#000000" stroke-width="1" x1="89" y1="369" x2="89" y2="10"/>
<line opacity="0.2" stroke="#000000" stroke-width="1" x1="149" y1="369" x2="149" y2="10"/>
<line opacity="0.2" stroke="#000000" stroke-width="1" x1="209" y1="369" x2="209" y2="10"/>
<line opacity="0.2" stroke="#000000" stroke-width="1" x1="269" y1="369" x2="269" y2="10"/>
<line opacity="0.2" stroke="#000000" stroke-width="1" x1="329" y1="369" x2="329" y2="10"/>
<line opacity="0.2" stroke="#000000" stroke-width="1" x1="389" y1="369" x2="389" y2="10"/>
<line opacity="0.2" stroke="#000000" stroke-width="1" x1="30" y1="369" x2="389" y2="369"/>
<line opacity="0.2" stroke="#000000" stroke-width="1" x1="30" y1="310" x2="389" y2="310"/>
<line opacity="0.2" stroke="#000000" stroke-width="1" x1="30" y1="250" x2="389" y2="250"/>
<line opacity="0.2" stroke="#000000" stroke-width="1" x1="30" y1="190" x2="389" y2="190"/>
<line opacity="0.2" stroke="#000000" stroke-width="1" x1="30" y1="130" x2="389" y2="130"/>
<line opacity="0.2" stroke="#000000" stroke-width="1" x1="30" y1="70" x2="389" y2="70"/>
<line opacity="0.2" stroke="#000000" stroke-width="1" x1="30" y1="10" x2="389" y2="10"/>
<polyline fill="none" opacity="1" stroke="#000000" stroke-width="1" points="29,10 29,369 "/>
<text x="20" y="369" dy="0.5ex" text-anchor="end" font-family="sans-serif" font-size="9.67741935483871" opacity="1" fill="#000000">
-3.0
</text>
<polyline fill="none" opacity="1" stroke="#000000" stroke-width="1" points="24,369 29,369 "/>
<text x="20" y="310" dy="0.5ex" text-anchor="end" font-family="sans-serif" font-size="9.67741935483871" opacity="1" fill="#000000">
-2.0
</text>
<polyline fill="none" opacity="1" stroke="#000000" stroke-width="1" points="24,310 29,310 "/>
<text x="20" y="250" dy="0.5ex" text-anchor="end" font-family="sans-serif" font-size="9.67741935483871" opacity="1" fill="#000000">
-1.0
</text>
<polyline fill="none" opacity="1" stroke="#000000" stroke-width="1" points="24,250 29,250 "/>
<text x="20" y="190" dy="0.5ex" text-anchor="end" font-family="sans-serif" font-size="9.67741935483871" opacity="1" fill="#000000">
0.0
</text>
<polyline fill="none" opacity="1" stroke="#000000" stroke-width="1" points="24,190 29,190 "/>
<text x="20" y="130" dy="0.5ex" text-anchor="end" font-family="sans-serif" font-size="9.67741935483871" opacity="1" fill="#000000">
1.0
</text>
<polyline fill="none" opacity="1" stroke="#000000" stroke-width="1" points="24,130 29,130 "/>
<text x="20" y="70" dy="0.5ex" text-anchor="end" font-family="sans-serif" font-size="9.67741935483871" opacity="1" fill="#000000">
2.0
</text>
<polyline fill="none" opacity="1" stroke="#000000" stroke-width="1" points="24,70 29,70 "/>
<text x="20" y="10" dy="0.5ex" text-anchor="end" font-family="sans-serif" font-size="9.67741935483871" opacity="1" fill="#000000">
3.0
</text>
<polyline fill="none" opacity="1" stroke="#000000" stroke-width="1" points="24,10 29,10 "/>
<polyline fill="none" opacity="1" stroke="#000000" stroke-width="1" points="30,370 389,370 "/>
<text x="30" y="380" dy="0.76em" text-anchor="middle" font-family="sans-serif" font-size="9.67741935483871" opacity="1" fill="#000000">
-3.0
</text>
<polyline fill="none" opacity="1" stroke="#000000" stroke-width="1" points="30,370 30,375 "/>
<text x="89" y="380" dy="0.76em" text-anchor="middle" font-family="sans-serif" font-size="9.67741935483871" opacity="1" fill="#000000">
-2.0
</text>
<polyline fill="none" opacity="1" stroke="#000000" stroke-width="1" points="89,370 89,375 "/>
<text x="149" y="380" dy="0.76em" text-anchor="middle" font-family="sans-serif" font-size="9.67741935483871" opacity="1" fill="#000000">
-1.0
</text>
<polyline fill="none" opacity="1" stroke="#000000" stroke-width="1" points="149,370 149,375 "/>
<text x="209" y="380" dy="0.76em" text-anchor="middle" font-family="sans-serif" font-size="9.67741935483871" opacity="1" fill="#000000">
0.0
</text>
<polyline fill="none" opacity="1" stroke="#000000" stroke-width="1" points="209,370 209,375 "/>
<text x="269" y="380" dy="0.76em" text-anchor="middle" font-family="sans-serif" font-size="9.67741935483871" opacity="1" fill="#000000">
1.0
</text>
<polyline fill="none" opacity="1" stroke="#000000" stroke-width="1" points="269,370 269,375 "/>
<text x="329" y="380" dy="0.76em" text-anchor="middle" font-family="sans-serif" font-size="9.67741935483871" opacity="1" fill="#000000">
2.0
</text>
<polyline fill="none" opacity="1" stroke="#000000" stroke-width="1" points="329,370 329,375 "/>
<text x="389" y="380" dy="0.76em" text-anchor="middle" font-family="sans-serif" font-size="9.67741935483871" opacity="1" fill="#000000">
3.0
</text>
<polyline fill="none" opacity="1" stroke="#000000" stroke-width="1" points="389,370 389,375 "/>
<circle cx="59" cy="340" r="3" opacity="1" fill="#C800C8" stroke="none" stroke-width="1"/>
<circle cx="119" cy="130" r="3" opacity="1" fill="#C800C8" stroke="none" stroke-width="1"/>
<circle cx="194" cy="295" r="3" opacity="1" fill="#C800C8" stroke="none" stroke-width="1"/>
<circle cx="284" cy="325" r="3" opacity="1" fill="#C800C8" stroke="none" stroke-width="1"/>
<circle cx="329" cy="130" r="3" opacity="1" fill="#C800C8" stroke="none" stroke-width="1"/>
<circle cx="209" cy="70" r="3" opacity="1" fill="#C800C8" stroke="none" stroke-width="1"/>
<polyline fill="none" opacity="1" stroke="#C800C8" stroke-width="1" points="59,340 119,130 194,295 284,325 329,130 209,70 "/>
<polyline fill="none" opacity="1" stroke="#C800C8" stroke-width="1" points="59,340 62,331 64,323 67,315 69,308 71,300 74,293 76,286 78,280 80,273 83,267 85,261 87,256 89,250 91,245 93,240 96,235 98,231 100,226 102,222 104,218 106,215 108,211 110,208 112,205 114,203 116,200 118,198 120,196 122,195 123,193 125,192 127,191 129,190 131,190 133,189 134,189 136,189 138,190 139,191 141,191 143,193 144,194 146,195 148,197 149,199 151,202 152,204 154,207 156,210 157,213 159,217 160,220 162,223 163,226 165,229 166,232 168,235 169,238 171,241 172,243 174,246 176,249 177,251 179,254 180,257 182,259 183,261 185,264 187,266 188,268 190,270 192,273 193,275 195,277 197,279 198,281 200,282 202,284 203,286 205,288 207,289 208,291 210,292 212,294 213,295 215,297 217,298 219,299 220,300 222,301 224,303 226,304 227,305 229,306 231,306 233,307 234,308 236,309 238,309 240,310 242,310 243,311 245,311 247,311 249,312 250,312 252,312 254,312 255,311 257,311 258,311 260,310 262,310 263,309 265,308 266,307 268,306 269,305 271,304 272,303 274,302 275,300 276,299 278,297 279,296 280,294 282,292 283,290 284,288 286,286 287,284 288,281 289,279 290,276 292,274 293,271 294,268 295,266 296,263 297,260 298,257 299,253 300,250 301,247 302,243 303,240 304,236 305,232 306,228 307,224 308,221 308,217 309,213 309,209 310,205 310,202 310,198 310,194 310,191 309,187 309,184 308,180 308,177 307,173 306,170 305,166 304,163 303,159 302,156 300,153 299,150 297,146 295,143 293,140 291,137 289,134 287,131 285,128 282,124 280,121 277,119 274,116 271,113 268,110 265,107 262,104 258,101 255,99 251,96 248,93 244,91 240,88 236,85 232,83 227,80 223,78 218,75 214,73 209,70 "/>
<circle cx="59" cy="340" r="2" opacity="1" fill="none" stroke="#C800C8" stroke-width="1"/>
<circle cx="157" cy="212" r="2" opacity="1" fill="none" stroke="#C800C8" stroke-width="1"/>
<circle cx="239" cy="310" r="2" opacity="1" fill="none" stroke="#C800C8" stroke-width="1"/>
<circle cx="306" cy="227" r="2" opacity="1" fill="none" stroke="#C800C8" stroke-width="1"/>
<circle cx="209" cy="70" r="2" opacity="1" fill="none" stroke="#C800C8" stroke-width="1"/>
<line opacity="1" stroke="#C800C8" stroke-width="1" x1="288" y1="131" x2="282" y2="124"/>
<polygon opacity="1" fill="#C800C8" points="282,124 284,134 291,128 282,124 "/>
</svg>
