<svg width="400" height="400" viewBox="0 0 400 400" xmlns="http://www.w3.org/2000/svg">
<rect x="0" y="0" width="400" height="400" opacity="0.81" fill="#FFFFFF" stroke="none"/>
<line opacity="0.1" stroke="#000000" stroke-width="1" x1="30" y1="369" x2="30" y2="10"/>
<line opacity="0.1" stroke="#000000" stroke-width="1" x1="35" y1="369" x2="35" y2="10"/>
<line opacity="0.1" stroke="#000000" stroke-width="1" x1="41" y1="369" x2="41" y2="10"/>
<line opacity="0.1" stroke="#000000" stroke-width="1" x1="47" y1="369" x2="47" y2="10"/>
<line opacity="0.1" stroke="#000000" stroke-width="1" x1="53" y1="369" x2="53" y2="10"/>
<line opacity="0.1" stroke="#000000" stroke-width="1" x1="59" y1="369" x2="59" y2="10"/>
<line opacity="0.1" stroke="#000000" stroke-width="1" x1="65" y1="369" x2="65" y2="10"/>
<line opacity="0.1" stroke="#000000" stroke-width="1" x1="71" y1="369" x2="71" y2="10"/>
<line opacity="0.1" stroke="#000000" stroke-width="1" x1="77" y1="369" x2="77" y2="10"/>
<line opacity="0.1" stroke="#000000" stroke-width="1" x1="83" y1="369" x2="83" y2="10"/>
<line opacity="0.1" stroke="#000000" stroke-width="1" x1="89" y1="369" x2="89" y2="10"/>
<line opacity="0.1" stroke="#000000" stroke-width="1" x1="95" y1="369" x2="95" y2="10"/>
<line opacity="0.1" stroke="#000000" stroke-width="1" x1="101" y1="369" x2="101" y2="10"/>
<line opacity="0.1" stroke="#000000" stroke-width="1" x1="107" y1="369" x2="107" y2="10"/>
<line opacity="0.1" stroke="#000000" stroke-width="1" x1="113" y1="369" x2="113" y2="10"/>
<line opacity="0.1" stroke="#000000" stroke-width="1" x1="119" y1="369" x2="119" y2="10"/>
<line opacity="0.1" stroke="#000000" stroke-width="1" x1="125" y1="369" x2="125" y2="10"/>
<line opacity="0.1" stroke="#000000" stroke-width="1" x1="131" y1="369" x2="131" y2="10"/>
<line opacity="0.1" stroke="#000000" stroke-width="1" x1="137" y1="369" x2="137" y2="10"/>
<line opacity="0.1" stroke="#000000" stroke-width="1" x1="143" y1="369" x2="143" y2="10"/>
<line opacity="0.1" stroke="#000000" stroke-width="1" x1="149" y1="369" x2="149" y2="10"/>
<line opacity="0.1" stroke="#000000" stroke-width="1" x1="155" y1="369" x2="155" y2="10"/>
<line opacity="0.1" stroke="#000000" stroke-width="1" x1="161" y1="369" x2="161" y2="10"/>
<line opacity="0.1" stroke="#000000" stroke-width="1" x1="167" y1="369" x2="167" y2="10"/>
<line opacity="0.1" stroke="#000000" stroke-width="1" x1="173" y1="369" x2="173" y2="10"/>
<line opacity="0.1" stroke="#000000" stroke-width="1" x1="179" y1="369" x2="179" y2="10"/>
<line opacity="0.1" stroke="#000000" stroke-width="1" x1="185" y1="369" x2="185" y2="10"/>
<line opacity="0.1" stroke="#000000" stroke-width="1" x1="191" y1="369" x2="191" y2="10"/>
<line opacity="0.1" stroke="#000000" stroke-width="1" x1="197" y1="369" x2="197" y2="10"/>
<line opacity="0.1" stroke="#000000" stroke-width="1" x1="203" y1="369" x2="203" y2="10"/>
<line opacity="0.1" stroke="#000000" stroke-width="1" x1="209" y1="369" x2="209" y2="10"/>
<line opacity="0.1" stroke="#000000" stroke-width="1" x1="215" y1="369" x2="215" y2="10"/>
<line opacity="0.1" stroke="#000000" stroke-width="1" x1="221" y1="369" x2="221" y2="10"/>
<line opacity="0.1" stroke="#000000" stroke-width="1" x1="227" y1="369" x2="227" y2="10"/>
<line opacity="0.1" stroke="#000000" stroke-width="1" x1="233" y1="369" x2="233" y2="10"/>
<line opacity="0.1" stroke="#000000" stroke-width="1" x1="239" y1="369" x2="239" y2="10"/>
<line opacity="0.1" stroke="#000000" stroke-width="1" x1="245" y1="369" x2="245" y2="10"/>
<line opacity="0.1" stroke="#000000" stroke-width="1" x1="251" y1="369" x2="251" y2="10"/>
<line opacity="0.1" stroke="#000000" stroke-width="1" x1="257" y1="369" x2="257" y2="10"/>
<line opacity="0.1" stroke="#000000" stroke-width="1" x1="263" y1="369" x2="263" y2="10"/>
<line opacity="0.1" stroke="#000000" stroke-width="1" x1="269" y1="369" x2="269" y2="10"/>
<line opacity="0.1" stroke="#000000" stroke-width="1" x1="275" y1="369" x2="275" y2="10"/>
<line opacity="0.1" stroke="#000000" stroke-width="1" x1="281" y1="369" x2="281" y2="10"/>
<line opacity="0.1" stroke="#000000" stroke-width="1" x1="287" y1="369" x2="287" y2="10"/>
<line opacity="0.1" stroke="#000000" stroke-width="1" x1="293" y1="369" x2="293" y2="10"/>
<line opacity="0.1" stroke="#000000" stroke-width="1" x1="299" y1="369" x2="299" y2="10"/>
<line opacity="0.1" stroke="#000000" stroke-width="1" x1="305" y1="369" x2="305" y2="10"/>
<line opacity="0.1" stroke="#000000" stroke-width="1" x1="311" y1="369" x2="311" y2="10"/>
<line opacity="0.1" stroke="#000000" stroke-width="1" x1="317" y1="369" x2="317" y2="10"/>
<line opacity="0.1" stroke="#000000" stroke-width="1" x1="323" y1="369" x2="323" y2="10"/>
<line opacity="0.1" stroke="#000000" stroke-width="1" x1="329" y1="369" x2="329" y2="10"/>
<line opacity="0.1" stroke="#000000" stroke-width="1" x1="335" y1="369" x2="335" y2="10"/>
<line opacity="0.1" stroke="#000000" stroke-width="1" x1="341" y1="369" x2="341" y2="10"/>
<line opacity="0.1" stroke="#000000" stroke-width="1" x1="347" y1="369" x2="347" y2="10"/>
<line opacity="0.1" stroke="#000000" stroke-width="1" x1="353" y1="369" x2="353" y2="10"/>
<line opacity="0.1" stroke="#000000" stroke-width="1" x1="359" y1="369" x2="359" y2="10"/>
<line opacity="0.1" stroke="#000000" stroke-width="1" x1="365" y1="369" x2="365" y2="10"/>
<line opacity="0.1" stroke="#000000" stroke-width="1" x1="371" y1="369" x2="371" y2="10"/>
<line opacity="0.1" stroke="#000000" stroke-width="1" x1="377" y1="369" x2="377" y2="10"/>
<line opacity="0.1" stroke="#000000" stroke-width="1" x1="383" y1="369" x2="383" y2="10"/>
<line opacity="0.1" stroke="#000000" stroke-width="1" x1="389" y1="369" x2="389" y2="10"/>
<line opacity="0.1" stroke="#000000" stroke-width="1" x1="30" y1="369" x2="389" y2="369"/>
<line opacity="0.1" stroke="#000000" stroke-width="1" x1="30" y1="364" x2="389" y2="364"/>
<line opacity="0.1" stroke="#000000" stroke-width="1" x1="30" y1="358" x2="389" y2="358"/>
<line opacity="0.1" stroke="#000000" stroke-width="1" x1="30" y1="352" x2="389" y2="352"/>
<line opacity="0.1" stroke="#000000" stroke-width="1" x1="30" y1="346" x2="389" y2="346"/>
<line opacity="0.1" stroke="#000000" stroke-width="1" x1="30" y1="340" x2="389" y2="340"/>
<line opacity="0.1" stroke="#000000" stroke-width="1" x1="30" y1="334" x2="389" y2="334"/>
<line opacity="0.1" stroke="#000000" stroke-width="1" x1="30" y1="328" x2="389" y2="328"/>
<line opacity="0.1" stroke="#000000" stroke-width="1" x1="30" y1="322" x2="389" y2="322"/>
<line opacity="0.1" stroke="#000000" stroke-width="1" x1="30" y1="316" x2="389" y2="316"/>
<line opacity="0.1" stroke="#000000" stroke-width="1" x1="30" y1="310" x2="389" y2="310"/>
<line opacity="0.1" stroke="#000000" stroke-width="1" x1="30" y1="304" x2="389" y2="304"/>
<line opacity="0.1" stroke="#000000" stroke-width="1" x1="30" y1="298" x2="389" y2="298"/>
<line opacity="0.1" stroke="#000000" stroke-width="1" x1="30" y1="292" x2="389" y2="292"/>
<line opacity="0.1" stroke="#000000" stroke-width="1" x1="30" y1="286" x2="389" y2="286"/>
<line opacity="0.1" stroke="#000000" stroke-width="1" x1="30" y1="280" x2="389" y2="280"/>
<line opacity="0.1" stroke="#000000" stroke-width="1" x1="30" y1="274" x2="389" y2="274"/>
<line opacity="0.1" stroke="#000000" stroke-width="1" x1="30" y1="268" x2="389" y2="268"/>
<line opacity="0.1" stroke="#000000" stroke-width="1" x1="30" y1="262" x2="389" y2="262"/>
<line opacity="0.1" stroke="#000000" stroke-width="1" x1="30" y1="256" x2="389" y2="256"/>
<line opacity="0.1" stroke="#000000" stroke-width="1" x1="30" y1="250" x2="389" y2="250"/>
<line opacity="0.1" stroke="#000000" stroke-width="1" x1="30" y1="244" x2="389" y2="244"/>
<line opacity="0.1" stroke="#000000" stroke-width="1" x1="30" y1="238" x2="389" y2="238"/>
<line opacity="0.1" stroke="#000000" stroke-width="1" x1="30" y1="232" x2="389" y2="232"/>
<line opacity="0.1" stroke="#000000" stroke-width="1" x1="30" y1="226" x2="389" y2="226"/>
<line opacity="0.1" stroke="#000000" stroke-width="1" x1="30" y1="220" x2="389" y2="220"/>
<line opacity="0.1" stroke="#000000" stroke-width="1" x1="30" y1="214" x2="389" y2="214"/>
<line opacity="0.1" stroke="#000000" stroke-width="1" x1="30" y1="208" x2="389" y2="208"/>
<line opacity="0.1" stroke="#000000" stroke-width="1" x1="30" y1="202" x2="389" y2="202"/>
<line opacity="0.1" stroke="#000000" stroke-width="1" x1="30" y1="196" x2="389" y2="196"/>
<line opacity="0.1" stroke="#000000" stroke-width="1" x1="30" y1="190" x2="389" y2="190"/>
<line opacity="0.1" stroke="#000000" stroke-width="1" x1="30" y1="184" x2="389" y2="184"/>
<line opacity="0.1" stroke="#000000" stroke-width="1" x1="30" y1="178" x2="389" y2="178"/>
<line opacity="0.1" stroke="#000000" stroke-width="1" x1="30" y1="172" x2="389" y2="172"/>
<line opacity="0.1" stroke="#000000" stroke-width="1" x1="30" y1="166" x2="389" y2="166"/>
<line opacity="0.1" stroke="#000000" stroke-width="1" x1="30" y1="160" x2="389" y2="160"/>
<line opacity="0.1" stroke="#000000" stroke-width="1" x1="30" y1="154" x2="389" y2="154"/>
<line opacity="0.1" stroke="#000000" stroke-width="1" x1="30" y1="148" x2="389" y2="148"/>
<line opacity="0.1" stroke="#000000" stroke-width="1" x1="30" y1="142" x2="389" y2="142"/>
<line opacity="0.1" stroke="#000000" stroke-width="1" x1="30" y1="136" x2="389" y2="136"/>
<line opacity="0.1" stroke="#000000" stroke-width="1" x1="30" y1="130" x2="389" y2="130"/>
<line opacity="0.1" stroke="#000000" stroke-width="1" x1="30" y1="124" x2="389" y2="124"/>
<line opacity="0.1" stroke="#000000" stroke-width="1" x1="30" y1="118" x2="389" y2="118"/>
<line opacity="0.1" stroke="#000000" stroke-width="1" x1="30" y1="112" x2="389" y2="112"/>
<line opacity="0.1" stroke="#000000" stroke-width="1" x1="30" y1="106" x2="389" y2="106"/>
<line opacity="0.1" stroke="#000000" stroke-width="1" x1="30" y1="100" x2="389" y2="100"/>
<line opacity="0.1" stroke="#000000" stroke-width="1" x1="30" y1="94" x2="389" y2="94"/>
<line opacity="0.1" stroke="#000000" stroke-width="1" x1="30" y1="88" x2="389" y2="88"/>
<line opacity="0.1" stroke="#000000" stroke-width="1" x1="30" y1="82" x2="389" y2="82"/>
<line opacity="0.1" stroke="#000000" stroke-width="1" x1="30" y1="76" x2="389" y2="76"/>
<line opacity="0.1" stroke="#000000" stroke-width="1" x1="30" y1="70" x2="389" y2="70"/>
<line opacity="0.1" stroke="#000000" stroke-width="1" x1="30" y1="64" x2="389" y2="64"/>
<line opacity="0.1" stroke="#000000" stroke-width="1" x1="30" y1="58" x2="389" y2="58"/>
<line opacity="0.1" stroke="#000000" stroke-width="1" x1="30" y1="52" x2="389" y2="52"/>
<line opacity="0.1" stroke="#000000" stroke-width="1" x1="30" y1="46" x2="389" y2="46"/>
<line opacity="0.1" stroke="#000000" stroke-width="1" x1="30" y1="40" x2="389" y2="40"/>
<line opacity="0.1" stroke="#000000" stroke-width="1" x1="30" y1="34" x2="389" y2="34"/>
<line opacity="0.1" stroke="#000000" stroke-width="1" x1="30" y1="28" x2="389" y2="28"/>
<line opacity="0.1" stroke="#000000" stroke-width="1" x1="30" y1="22" x2="389" y2="22"/>
<line opacity="0.1" stroke="#000000" stroke-width="1" x1="30" y1="16" x2="389" y2="16"/>
<line opacity="0.1" stroke="#000000" stroke-width="1" x1="30" y1="10" x2="389" y2="10"/>
<line opacity="0.2" stroke="#000000" stroke-width="1" x1="30" y1="369" x2="30" y2="10"/>
<line opacity="0.2" stroke="#000000" stroke-width="1" x1="89" y1="369" x2="89" y2="10"/>
<line opacity="0.2" stroke="#000000" stroke-width="1" x1="149" y1="369" x2="149" y2="10"/>
<line opacity="0.2" stroke="#000000" stroke-width="1" x1="209" y1="369" x2="209" y2="10"/>
<line opacity="0.2" stroke="#000000" stroke-width="1" x1="269" y1="369" x2="269" y2="10"/>
<line opacity="0.2" stroke="#000000" stroke-width="1" x1="329" y1="369" x2="329" y2="10"/>
<line opacity="0.2" stroke="#000000" stroke-width="1" x1="389" y1="369" x2="389" y2="10"/>
<line opacity="0.2" stroke="#000000" stroke-width="1" x1="30" y1="369" x2="389" y2="369"/>
<line opacity="0.2" stroke="#000000" stroke-width="1" x1="30" y1="310" x2="389" y2="310"/>
<line opacity="0.2" stroke="#000000" stroke-width="1" x1="30" y1="250" x2="389" y2="250"/>
<line opacity="0.2" stroke="#000000" stroke-width="1" x1="30" y1="190" x2="389" y2="190"/>
<line opacity="0.2" stroke="#000000" stroke-width="1" x1="30" y1="130" x2="389" y2="130"/>
<line opacity="0.2" stroke="#000000" stroke-width="1" x1="30" y1="70" x2="389" y2="70"/>
<line opacity="0.2" stroke="#000000" stroke-width="1" x1="30" y1="10" x2="389" y2="10"/>
<polyline fill="none" opacity="1" stroke="#000000" stroke-width="1" points="29,10 29,369 "/>
<text x="20" y="369" dy="0.5ex" text-anchor="end" font-family="sans-serif" font-size="9.67741935483871" opacity="1" fill="#000000">
-3.0
</text>
<polyline fill="none" opacity="1" stroke="#000000" stroke-width="1" points="24,369 29,369 "/>
<text x="20" y="310" dy="0.5ex" text-anchor="end" font-family="sans-serif" font-size="9.67741935483871" opacity="1" fill="#000000">
-2.0
</text>
<polyline fill="none" opacity="1" stroke="#000000" stroke-width="1" points="24,310 29,310 "/>
<text x="20" y="250" dy="0.5ex" text-anchor="end" font-family="sans-serif" font-size="9.67741935483871" opacity="1" fill="#000000">
-1.0
</text>
<polyline fill="none" opacity="1" stroke="#000000" stroke-width="1" points="24,250 29,250 "/>
<text x="20" y="190" dy="0.5ex" text-anchor="end" font-family="sans-serif" font-size="9.67741935483871" opacity="1" fill="#000000">
0.0
</text>
<polyline fill="none" opacity="1" stroke="#000000" stroke-width="1" points="24,190 29,190 "/>
<text x="20" y="130" dy="0.5ex" text-anchor="end" font-family="sans-serif" font-size="9.67741935483871" opacity="1" fill="#000000">
1.0
</text>
<polyline fill="none" opacity="1" stroke="#000000" stroke-width="1" points="24,130 29,130 "/>
<text x="20" y="70" dy="0.5ex" text-anchor="end" font-family="sans-serif" font-size="9.67741935483871" opacity="1" fill="#000000">
2.0
</text>
<polyline fill="none" opacity="1" stroke="#000000" stroke-width="1" points="24,70 29,70 "/>
<text x="20" y="10" dy="0.5ex" text-anchor="end" font-family="sans-serif" font-size="9.67741935483871" opacity="1" fill="#000000">
3.0
</text>
<polyline fill="none" opacity="1" stroke="#000000" stroke-width="1" points="24,10 29,10 "/>
<polyline fill="none" opacity="1" stroke="#000000" stroke-width="1" points="30,370 389,370 "/>
<text x="30" y="380" dy="0.76em" text-anchor="middle" font-family="sans-serif" font-size="9.67741935483871" opacity="1" fill="#000000">
-3.0
</text>
<polyline fill="none" opacity="1" stroke="#000000" stroke-width="1" points="30,370 30,375 "/>
<text x="89" y="380" dy="0.76em" text-anchor="middle" font-family="sans-serif" font-size="9.67741935483871" opacity="1" fill="#000000">
-2.0
</text>
<polyline fill="none" opacity="1" stroke="#000000" stroke-width="1" points="89,370 89,375 "/>
<text x="149" y="380" dy="0.76em" text-anchor="middle" font-family="sans-serif" font-size="9.67741935483871" opacity="1" fill="#000000">
-1.0
</text>
<polyline fill="none" opacity="1" stroke="#000000" stroke-width="1" points="149,370 149,375 "/>
<text x="209" y="380" dy="0.76em" text-anchor="middle" font-family="sans-serif" font-size="9.67741935483871" opacity="1" fill="#000000">
0.0
</text>
<polyline fill="none" opacity="1" stroke="#000000" stroke-width="1" points="209,370 209,375 "/>
<text x="269" y="380" dy="0.76em" text-anchor="middle" font-family="sans-serif" font-size="9.67741935483871" opacity="1" fill="#000000">
1.0
</text>
<polyline fill="none" opacity="1" stroke="#000000" stroke-width="1" points="269,370 269,375 "/>
<text x="329" y="380" dy="0.76em" text-anchor="middle" font-family="sans-serif" font-size="9.67741935483871" opacity="1" fill="#000000">
2.0
</text>
<polyline fill="none" opacity="1" stroke="#000000" stroke-width="1" points="329,370 329,375 "/>
<text x="389" y="380" dy="0.76em" text-anchor="middle" font-family="sans-serif" font-size="9.67741935483871" opacity="1" fill="#000000">
3.0
</text>
<polyline fill="none" opacity="1" stroke="#000000" stroke-width="1" points="389,370 389,375 "/>
<circle cx="59" cy="340" r="3" opacity="1" fill="#FF0000" stroke="none" stroke-width="1"/>
<circle cx="119" cy="130" r="3" opacity="1" fill="#FF0000" stroke="none" stroke-width="1"/>
<circle cx="179" cy="280" r="3" opacity="1" fill="#FF0000" stroke="none" stroke-width="1"/>
<circle cx="239" cy="310" r="3" opacity="1" fill="#FF0000" stroke="none" stroke-width="1"/>
<polyline fill="none" opacity="1" stroke="#FF0000" stroke-width="1" points="59,340 119,130 179,280 239,310 "/>
<polyline fill="none" opacity="1" stroke="#FF0000" stroke-width="1" points="59,340 61,335 62,331 63,327 64,323 65,319 67,315 68,312 69,308 70,304 71,300 72,297 73,293 75,290 76,286 77,283 78,280 79,276 80,273 81,270 82,267 83,264 84,261 85,258 87,255 88,252 89,250 90,247 91,244 92,242 93,239 94,237 95,234 96,232 97,230 98,227 99,225 100,223 101,221 102,219 103,217 104,215 105,213 106,212 106,210 107,208 108,207 109,205 110,204 111,202 112,201 113,200 114,198 115,197 116,196 116,195 117,194 118,193 119,192 120,191 121,190 122,190 122,189 123,188 124,188 125,187 126,187 126,186 127,186 128,186 129,186 130,185 130,185 131,185 132,185 133,185 133,185 134,186 135,186 136,186 136,187 137,187 138,187 138,188 139,189 140,189 140,190 141,191 142,191 143,192 143,193 144,194 144,195 145,196 146,198 146,199 147,200 148,201 148,203 149,204 149,206 150,207 151,209 151,210 152,212 153,213 153,215 154,216 154,217 155,219 156,220 156,222 157,223 158,224 159,226 159,227 160,229 161,230 161,231 162,233 163,234 163,235 164,236 165,238 166,239 166,240 167,242 168,243 169,244 170,245 170,247 171,248 172,249 173,250 174,251 174,253 175,254 176,255 177,256 178,257 178,258 179,260 180,261 181,262 182,263 183,264 184,265 185,266 185,267 186,268 187,269 188,270 189,271 190,272 191,273 192,274 193,275 194,276 195,277 196,278 197,279 198,280 199,281 200,282 201,283 202,284 203,285 204,286 205,287 206,288 207,288 208,289 209,290 210,291 211,292 212,293 213,293 214,294 215,295 216,296 217,297 218,297 219,298 220,299 222,300 223,300 224,301 225,302 226,303 227,303 228,304 229,305 231,305 232,306 233,307 234,307 235,308 237,308 238,309 239,310 "/>
<circle cx="59" cy="340" r="2" opacity="1" fill="none" stroke="#FF0000" stroke-width="1"/>
<circle cx="149" cy="205" r="2" opacity="1" fill="none" stroke="#FF0000" stroke-width="1"/>
<circle cx="239" cy="310" r="2" opacity="1" fill="none" stroke="#FF0000" stroke-width="1"/>
<line opacity="1" stroke="#FF0000" stroke-width="1" x1="209" y1="291" x2="216" y2="296"/>
<polygon opacity="1" fill="#FF0000" points="216,296 212,288 207,295 216,296 "/>
<circle cx="239" cy="280" r="3" opacity="1" fill="#0000FF" stroke="none" stroke-width="1"/>
<circle cx="269" cy="310" r="3" opacity="1" fill="#0000FF" stroke="none" stroke-width="1"/>
<circle cx="329" cy="130" r="3" opacity="1" fill="#0000FF" stroke="none" stroke-width="1"/>
<circle cx="209" cy="70" r="3" opacity="1" fill="#0000FF" stroke="none" stroke-width="1"/>
<polyline fill="none" opacity="1" stroke="#0000FF" stroke-width="1" points="239,280 269,310 329,130 209,70 "/>
<polyline fill="none" opacity="1" stroke="#0000FF" stroke-width="1" points="239,280 240,280 240,281 241,281 241,282 242,282 243,283 243,283 244,284 244,284 245,285 246,285 246,285 247,286 247,286 248,286 249,286 249,286 250,287 250,287 251,287 252,287 252,287 253,287 253,287 254,287 255,287 255,287 256,287 256,287 257,287 258,287 258,287 259,286 259,286 260,286 261,286 261,285 262,285 262,285 263,284 264,284 264,284 265,283 265,283 266,282 267,282 267,281 268,281 268,280 269,280 270,279 270,278 271,278 271,277 272,276 273,276 273,275 274,274 274,273 275,272 276,271 276,271 277,270 277,269 278,268 279,267 279,266 280,265 280,264 281,263 282,262 282,260 283,259 283,258 284,257 285,256 285,254 286,253 286,252 287,250 288,249 288,248 289,246 289,245 290,244 291,242 291,241 292,239 292,238 293,236 294,234 294,233 295,231 295,229 296,228 297,226 297,224 298,223 298,221 299,219 300,217 300,215 301,214 301,212 302,210 302,208 302,207 303,205 303,203 303,201 304,200 304,198 304,196 304,194 304,193 305,191 305,189 305,188 305,186 305,184 305,183 305,181 305,179 304,178 304,176 304,174 304,173 304,171 303,169 303,168 303,166 302,164 302,163 302,161 301,160 301,158 300,157 300,155 299,153 298,152 298,150 297,149 296,147 296,146 295,144 294,143 293,141 292,140 291,138 291,137 290,135 289,134 288,132 287,131 286,129 284,128 283,126 282,125 281,123 280,122 279,120 277,119 276,118 275,116 273,115 272,113 271,112 269,111 268,109 266,108 265,106 263,105 261,104 260,102 258,101 256,100 255,98 253,97 251,96 249,94 247,93 246,92 244,90 242,89 240,88 238,86 236,85 234,84 232,83 229,81 227,80 225,79 223,78 221,76 218,75 216,74 214,73 211,72 209,70 "/>
<circle cx="239" cy="280" r="2" opacity="1" fill="none" stroke="#0000FF" stroke-width="1"/>
<circle cx="299" cy="220" r="2" opacity="1" fill="none" stroke="#0000FF" stroke-width="1"/>
<circle cx="209" cy="70" r="2" opacity="1" fill="none" stroke="#0000FF" stroke-width="1"/>
<line opacity="1" stroke="#0000FF" stroke-width="1" x1="258" y1="101" x2="251" y2="95"/>
<polygon opacity="1" fill="#0000FF" points="251,95 255,104 261,97 251,95 "/>
</svg>
