<svg width="400" height="400" viewBox="0 0 400 400" xmlns="http://www.w3.org/2000/svg">
<rect x="0" y="0" width="400" height="400" opacity="0.85" fill="#FFFFFF" stroke="none"/>
<line opacity="0.1" stroke="#000000" stroke-width="1" x1="30" y1="369" x2="30" y2="10"/>
<line opacity="0.1" stroke="#000000" stroke-width="1" x1="35" y1="369" x2="35" y2="10"/>
<line opacity="0.1" stroke="#000000" stroke-width="1" x1="41" y1="369" x2="41" y2="10"/>
<line opacity="0.1" stroke="#000000" stroke-width="1" x1="47" y1="369" x2="47" y2="10"/>
<line opacity="0.1" stroke="#000000" stroke-width="1" x1="53" y1="369" x2="53" y2="10"/>
<line opacity="0.1" stroke="#000000" stroke-width="1" x1="59" y1="369" x2="59" y2="10"/>
<line opacity="0.1" stroke="#000000" stroke-width="1" x1="65" y1="369" x2="65" y2="10"/>
<line opacity="0.1" stroke="#000000" stroke-width="1" x1="71" y1="369" x2="71" y2="10"/>
<line opacity="0.1" stroke="#000000" stroke-width="1" x1="77" y1="369" x2="77" y2="10"/>
<line opacity="0.1" stroke="#000000" stroke-width="1" x1="83" y1="369" x2="83" y2="10"/>
<line opacity="0.1" stroke="#000000" stroke-width="1" x1="89" y1="369" x2="89" y2="10"/>
<line opacity="0.1" stroke="#000000" stroke-width="1" x1="95" y1="369" x2="95" y2="10"/>
<line opacity="0.1" stroke="#000000" stroke-width="1" x1="101" y1="369" x2="101" y2="10"/>
<line opacity="0.1" stroke="#000000" stroke-width="1" x1="107" y1="369" x2="107" y2="10"/>
<line opacity="0.1" stroke="#000000" stroke-width="1" x1="113" y1="369" x2="113" y2="10"/>
<line opacity="0.1" stroke="#000000" stroke-width="1" x1="119" y1="369" x2="119" y2="10"/>
<line opacity="0.1" stroke="#000000" stroke-width="1" x1="125" y1="369" x2="125" y2="10"/>
<line opacity="0.1" stroke="#000000" stroke-width="1" x1="131" y1="369" x2="131" y2="10"/>
<line opacity="0.1" stroke="#000000" stroke-width="1" x1="137" y1="369" x2="137" y2="10"/>
<line opacity="0.1" stroke="#000000" stroke-width="1" x1="143" y1="369" x2="143" y2="10"/>
<line opacity="0.1" stroke="#000000" stroke-width="1" x1="149" y1="369" x2="149" y2="10"/>
<line opacity="0.1" stroke="#000000" stroke-width="1" x1="155" y1="369" x2="155" y2="10"/>
<line opacity="0.1" stroke="#000000" stroke-width="1" x1="161" y1="369" x2="161" y2="10"/>
<line opacity="0.1" stroke="#000000" stroke-width="1" x1="167" y1="369" x2="167" y2="10"/>
<line opacity="0.1" stroke="#000000" stroke-width="1" x1="173" y1="369" x2="173" y2="10"/>
<line opacity="0.1" stroke="#000000" stroke-width="1" x1="179" y1="369" x2="179" y2="10"/>
<line opacity="0.1" stroke="#000000" stroke-width="1" x1="185" y1="369" x2="185" y2="10"/>
<line opacity="0.1" stroke="#000000" stroke-width="1" x1="191" y1="369" x2="191" y2="10"/>
<line opacity="0.1" stroke="#000000" stroke-width="1" x1="197" y1="369" x2="197" y2="10"/>
<line opacity="0.1" stroke="#000000" stroke-width="1" x1="203" y1="369" x2="203" y2="10"/>
<line opacity="0.1" stroke="#000000" stroke-width="1" x1="209" y1="369" x2="209" y2="10"/>
<line opacity="0.1" stroke="#000000" stroke-width="1" x1="215" y1="369" x2="215" y2="10"/>
<line opacity="0.1" stroke="#000000" stroke-width="1" x1="221" y1="369" x2="221" y2="10"/>
<line opacity="0.1" stroke="#000000" stroke-width="1" x1="227" y1="369" x2="227" y2="10"/>
<line opacity="0.1" stroke="#000000" stroke-width="1" x1="233" y1="369" x2="233" y2="10"/>
<line opacity="0.1" stroke="#000000" stroke-width="1" x1="239" y1="369" x2="239" y2="10"/>
<line opacity="0.1" stroke="#000000" stroke-width="1" x1="245" y1="369" x2="245" y2="10"/>
<line opacity="0.1" stroke="#000000" stroke-width="1" x1="251" y1="369" x2="251" y2="10"/>
<line opacity="0.1" stroke="#000000" stroke-width="1" x1="257" y1="369" x2="257" y2="10"/>
<line opacity="0.1" stroke="#000000" stroke-width="1" x1="263" y1="369" x2="263" y2="10"/>
<line opacity="0.1" stroke="#000000" stroke-width="1" x1="269" y1="369" x2="269" y2="10"/>
<line opacity="0.1" stroke="#000000" stroke-width="1" x1="275" y1="369" x2="275" y2="10"/>
<line opacity="0.1" stroke="#000000" stroke-width="1" x1="281" y1="369" x2="281" y2="10"/>
<line opacity="0.1" stroke="#000000" stroke-width="1" x1="287" y1="369" x2="287" y2="10"/>
<line opacity="0.1" stroke="#000000" stroke-width="1" x1="293" y1="369" x2="293" y2="10"/>
<line opacity="0.1" stroke="#000000" stroke-width="1" x1="299" y1="369" x2="299" y2="10"/>
<line opacity="0.1" stroke="#000000" stroke-width="1" x1="305" y1="369" x2="305" y2="10"/>
<line opacity="0.1" stroke="#000000" stroke-width="1" x1="311" y1="369" x2="311" y2="10"/>
<line opacity="0.1" stroke="#000000" stroke-width="1" x1="317" y1="369" x2="317" y2="10"/>
<line opacity="0.1" stroke="#000000" stroke-width="1" x1="323" y1="369" x2="323" y2="10"/>
<line opacity="0.1" stroke="#000000" stroke-width="1" x1="329" y1="369" x2="329" y2="10"/>
<line opacity="0.1" stroke="#000000" stroke-width="1" x1="335" y1="369" x2="335" y2="10"/>
<line opacity="0.1" stroke="#000000" stroke-width="1" x1="341" y1="369" x2="341" y2="10"/>
<line opacity="0.1" stroke="#000000" stroke-width="1" x1="347" y1="369" x2="347" y2="10"/>
<line opacity="0.1" stroke="#000000" stroke-width="1" x1="353" y1="369" x2="353" y2="10"/>
<line opacity="0.1" stroke="#000000" stroke-width="1" x1="359" y1="369" x2="359" y2="10"/>
<line opacity="0.1" stroke="#000000" stroke-width="1" x1="365" y1="369" x2="365" y2="10"/>
<line opacity="0.1" stroke="#000000" stroke-width="1" x1="371" y1="369" x2="371" y2="10"/>
<line opacity="0.1" stroke="#000000" stroke-width="1" x1="377" y1="369" x2="377" y2="10"/>
<line opacity="0.1" stroke="#000000" stroke-width="1" x1="383" y1="369" x2="383" y2="10"/>
<line opacity="0.1" stroke="#000000" stroke-width="1" x1="389" y1="369" x2="389" y2="10"/>
<line opacity="0.1" stroke="#000000" stroke-width="1" x1="30" y1="369" x2="389" y2="369"/>
<line opacity="0.1" stroke="#000000" stroke-width="1" x1="30" y1="364" x2="389" y2="364"/>
<line opacity="0.1" stroke="#000000" stroke-width="1" x1="30" y1="358" x2="389" y2="358"/>
<line opacity="0.1" stroke="#000000" stroke-width="1" x1="30" y1="352" x2="389" y2="352"/>
<line opacity="0.1" stroke="#000000" stroke-width="1" x1="30" y1="346" x2="389" y2="346"/>
<line opacity="0.1" stroke="#000000" stroke-width="1" x1="30" y1="340" x2="389" y2="340"/>
<line opacity="0.1" stroke="#000000" stroke-width="1" x1="30" y1="334" x2="389" y2="334"/>
<line opacity="0.1" stroke="#000000" stroke-width="1" x1="30" y1="328" x2="389" y2="328"/>
<line opacity="0.1" stroke="#000000" stroke-width="1" x1="30" y1="322" x2="389" y2="322"/>
<line opacity="0.1" stroke="#000000" stroke-width="1" x1="30" y1="316" x2="389" y2="316"/>
<line opacity="0.1" stroke="#000000" stroke-width="1" x1="30" y1="310" x2="389" y2="310"/>
<line opacity="0.1" stroke="#000000" stroke-width="1" x1="30" y1="304" x2="389" y2="304"/>
<line opacity="0.1" stroke="#000000" stroke-width="1" x1="30" y1="298" x2="389" y2="298"/>
<line opacity="0.1" stroke="#000000" stroke-width="1" x1="30" y1="292" x2="389" y2="292"/>
<line opacity="0.1" stroke="#000000" stroke-width="1" x1="30" y1="286" x2="389" y2="286"/>
<line opacity="0.1" stroke="#000000" stroke-width="1" x1="30" y1="280" x2="389" y2="280"/>
<line opacity="0.1" stroke="#000000" stroke-width="1" x1="30" y1="274" x2="389" y2="274"/>
<line opacity="0.1" stroke="#000000" stroke-width="1" x1="30" y1="268" x2="389" y2="268"/>
<line opacity="0.1" stroke="#000000" stroke-width="1" x1="30" y1="262" x2="389" y2="262"/>
<line opacity="0.1" stroke="#000000" stroke-width="1" x1="30" y1="256" x2="389" y2="256"/>
<line opacity="0.1" stroke="#000000" stroke-width="1" x1="30" y1="250" x2="389" y2="250"/>
<line opacity="0.1" stroke="#000000" stroke-width="1" x1="30" y1="244" x2="389" y2="244"/>
<line opacity="0.1" stroke="#000000" stroke-width="1" x1="30" y1="238" x2="389" y2="238"/>
<line opacity="0.1" stroke="#000000" stroke-width="1" x1="30" y1="232" x2="389" y2="232"/>
<line opacity="0.1" stroke="#000000" stroke-width="1" x1="30" y1="226" x2="389" y2="226"/>
<line opacity="0.1" stroke="#000000" stroke-width="1" x1="30" y1="220" x2="389" y2="220"/>
<line opacity="0.1" stroke="#000000" stroke-width="1" x1="30" y1="214" x2="389" y2="214"/>
<line opacity="0.1" stroke="#000000" stroke-width="1" x1="30" y1="208" x2="389" y2="208"/>
<line opacity="0.1" stroke="#000000" stroke-width="1" x1="30" y1="202" x2="389" y2="202"/>
<line opacity="0.1" stroke="#000000" stroke-width="1" x1="30" y1="196" x2="389" y2="196"/>
<line opacity="0.1" stroke="#000000" stroke-width="1" x1="30" y1="190" x2="389" y2="190"/>
<line opacity="0.1" stroke="#000000" stroke-width="1" x1="30" y1="184" x2="389" y2="184"/>
<line opacity="0.1" stroke="#000000" stroke-width="1" x1="30" y1="178" x2="389" y2="178"/>
<line opacity="0.1" stroke="#000000" stroke-width="1" x1="30" y1="172" x2="389" y2="172"/>
<line opacity="0.1" stroke="#000000" stroke-width="1" x1="30" y1="166" x2="389" y2="166"/>
<line opacity="0.1" stroke="#000000" stroke-width="1" x1="30" y1="160" x2="389" y2="160"/>
<line opacity="0.1" stroke="#000000" stroke-width="1" x1="30" y1="154" x2="389" y2="154"/>
<line opacity="0.1" stroke="#000000" stroke-width="1" x1="30" y1="148" x2="389" y2="148"/>
<line opacity="0.1" stroke="#000000" stroke-width="1" x1="30" y1="142" x2="389" y2="142"/>
<line opacity="0.1" stroke="#000000" stroke-width="1" x1="30" y1="136" x2="389" y2="136"/>
<line opacity="0.1" stroke="#000000" stroke-width="1" x1="30" y1="130" x2="389" y2="130"/>
<line opacity="0.1" stroke="#000000" stroke-width="1" x1="30" y1="124" x2="389" y2="124"/>
<line opacity="0.1" stroke="#000000" stroke-width="1" x1="30" y1="118" x2="389" y2="118"/>
<line opacity="0.1" stroke="#000000" stroke-width="1" x1="30" y1="112" x2="389" y2="112"/>
<line opacity="0.1" stroke="#000000" stroke-width="1" x1="30" y1="106" x2="389" y2="106"/>
<line opacity="0.1" stroke="#000000" stroke-width="1" x1="30" y1="100" x2="389" y2="100"/>
<line opacity="0.1" stroke="#000000" stroke-width="1" x1="30" y1="94" x2="389" y2="94"/>
<line opacity="0.1" stroke="#000000" stroke-width="1" x1="30" y1="88" x2="389" y2="88"/>
<line opacity="0.1" stroke="#000000" stroke-width="1" x1="30" y1="82" x2="389" y2="82"/>
<line opacity="0.1" stroke="#000000" stroke-width="1" x1="30" y1="76" x2="389" y2="76"/>
<line opacity="0.1" stroke="#000000" stroke-width="1" x1="30" y1="70" x2="389" y2="70"/>
<line opacity="0.1" stroke="#000000" stroke-width="1" x1="30" y1="64" x2="389" y2="64"/>
<line opacity="0.1" stroke="#000000" stroke-width="1" x1="30" y1="58" x2="389" y2="58"/>
<line opacity="0.1" stroke="#000000" stroke-width="1" x1="30" y1="52" x2="389" y2="52"/>
<line opacity="0.1" stroke="#000000" stroke-width="1" x1="30" y1="46" x2="389" y2="46"/>
<line opacity="0.1" stroke="#000000" stroke-width="1" x1="30" y1="40" x2="389" y2="40"/>
<line opacity="0.1" stroke="#000000" stroke-width="1" x1="30" y1="34" x2="389" y2="34"/>
<line opacity="0.1" stroke="#000000" stroke-width="1" x1="30" y1="28" x2="389" y2="28"/>
<line opacity="0.1" stroke="#000000" stroke-width="1" x1="30" y1="22" x2="389" y2="22"/>
<line opacity="0.1" stroke="#000000" stroke-width="1" x1="30" y1="16" x2="389" y2="16"/>
<line opacity="0.1" stroke="#000000" stroke-width="1" x1="30" y1="10" x2="389" y2="10"/>
<line opacity="0.2" stroke="#000000" stroke-width="1" x1="30" y1="369" x2="30" y2="10"/>
<line opacity="0.2" stroke="#000000" stroke-width="1" x1="89" y1="369" x2="89" y2="10"/>
<line opacity="0.2" stroke="#000000" stroke-width="1" x1="149" y1="369" x2="149" y2="10"/>
<line opacity="0.2" stroke="#000000" stroke-width="1" x1="209" y1="369" x2="209" y2="10"/>
<line opacity="0.2" stroke="#000000" stroke-width="1" x1="269" y1="369" x2="269" y2="10"/>
<line opacity="0.2" stroke="#000000" stroke-width="1" x1="329" y1="369" x2="329" y2="10"/>
<line opacity="0.2" stroke="#000000" stroke-width="1" x1="389" y1="369" x2="389" y2="10"/>
<line opacity="0.2" stroke="#000000" stroke-width="1" x1="30" y1="369" x2="389" y2="369"/>
<line opacity="0.2" stroke="#000000" stroke-width="1" x1="30" y1="310" x2="389" y2="310"/>
<line opacity="0.2" stroke="#000000" stroke-width="1" x1="30" y1="250" x2="389" y2="250"/>
<line opacity="0.2" stroke="#000000" stroke-width="1" x1="30" y1="190" x2="389" y2="190"/>
<line opacity="0.2" stroke="#000000" stroke-width="1" x1="30" y1="130" x2="389" y2="130"/>
<line opacity="0.2" stroke="#000000" stroke-width="1" x1="30" y1="70" x2="389" y2="70"/>
<line opacity="0.2" stroke="#000000" stroke-width="1" x1="30" y1="10" x2="389" y2="10"/>
<polyline fill="none" opacity="1" stroke="#000000" stroke-width="1" points="29,10 29,369 "/>
<text x="20" y="369" dy="0.5ex" text-anchor="end" font-family="sans-serif" font-size="9.67741935483871" opacity="1" fill="#000000">
-3.0
</text>
<polyline fill="none" opacity="1" stroke="#000000" stroke-width="1" points="24,369 29,369 "/>
<text x="20" y="310" dy="0.5ex" text-anchor="end" font-family="sans-serif" font-size="9.67741935483871" opacity="1" fill="#000000">
-2.0
</text>
<polyline fill="none" opacity="1" stroke="#000000" stroke-width="1" points="24,310 29,310 "/>
<text x="20" y="250" dy="0.5ex" text-anchor="end" font-family="sans-serif" font-size="9.67741935483871" opacity="1" fill="#000000">
-1.0
</text>
<polyline fill="none" opacity="1" stroke="#000000" stroke-width="1" points="24,250 29,250 "/>
<text x="20" y="190" dy="0.5ex" text-anchor="end" font-family="sans-serif" font-size="9.67741935483871" opacity="1" fill="#000000">
0.0
</text>
<polyline fill="none" opacity="1" stroke="#000000" stroke-width="1" points="24,190 29,190 "/>
<text x="20" y="130" dy="0.5ex" text-anchor="end" font-family="sans-serif" font-size="9.67741935483871" opacity="1" fill="#000000">
1.0
</text>
<polyline fill="none" opacity="1" stroke="#000000" stroke-width="1" points="24,130 29,130 "/>
<text x="20" y="70" dy="0.5ex" text-anchor="end" font-family="sans-serif" font-size="9.67741935483871" opacity="1" fill="#000000">
2.0
</text>
<polyline fill="none" opacity="1" stroke="#000000" stroke-width="1" points="24,70 29,70 "/>
<text x="20" y="10" dy="0.5ex" text-anchor="end" font-family="sans-serif" font-size="9.67741935483871" opacity="1" fill="#000000">
3.0
</text>
<polyline fill="none" opacity="1" stroke="#000000" stroke-width="1" points="24,10 29,10 "/>
<polyline fill="none" opacity="1" stroke="#000000" stroke-width="1" points="30,370 389,370 "/>
<text x="30" y="380" dy="0.76em" text-anchor="middle" font-family="sans-serif" font-size="9.67741935483871" opacity="1" fill="#000000">
-3.0
</text>
<polyline fill="none" opacity="1" stroke="#000000" stroke-width="1" points="30,370 30,375 "/>
<text x="89" y="380" dy="0.76em" text-anchor="middle" font-family="sans-serif" font-size="9.67741935483871" opacity="1" fill="#000000">
-2.0
</text>
<polyline fill="none" opacity="1" stroke="#000000" stroke-width="1" points="89,370 89,375 "/>
<text x="149" y="380" dy="0.76em" text-anchor="middle" font-family="sans-serif" font-size="9.67741935483871" opacity="1" fill="#000000">
-1.0
</text>
<polyline fill="none" opacity="1" stroke="#000000" stroke-width="1" points="149,370 149,375 "/>
<text x="209" y="380" dy="0.76em" text-anchor="middle" font-family="sans-serif" font-size="9.67741935483871" opacity="1" fill="#000000">
0.0
</text>
<polyline fill="none" opacity="1" stroke="#000000" stroke-width="1" points="209,370 209,375 "/>
<text x="269" y="380" dy="0.76em" text-anchor="middle" font-family="sans-serif" font-size="9.67741935483871" opacity="1" fill="#000000">
1.0
</text>
<polyline fill="none" opacity="1" stroke="#000000" stroke-width="1" points="269,370 269,375 "/>
<text x="329" y="380" dy="0.76em" text-anchor="middle" font-family="sans-serif" font-size="9.67741935483871" opacity="1" fill="#000000">
2.0
</text>
<polyline fill="none" opacity="1" stroke="#000000" stroke-width="1" points="329,370 329,375 "/>
<text x="389" y="380" dy="0.76em" text-anchor="middle" font-family="sans-serif" font-size="9.67741935483871" opacity="1" fill="#000000">
3.0
</text>
<polyline fill="none" opacity="1" stroke="#000000" stroke-width="1" points="389,370 389,375 "/>
<circle cx="59" cy="343" r="3" opacity="1" fill="#000000" stroke="none" stroke-width="1"/>
<circle cx="62" cy="316" r="3" opacity="1" fill="#000000" stroke="none" stroke-width="1"/>
<circle cx="80" cy="337" r="3" opacity="1" fill="#000000" stroke="none" stroke-width="1"/>
<circle cx="107" cy="346" r="3" opacity="1" fill="#000000" stroke="none" stroke-width="1"/>
<circle cx="119" cy="319" r="3" opacity="1" fill="#000000" stroke="none" stroke-width="1"/>
<circle cx="128" cy="319" r="3" opacity="1" fill="#000000" stroke="none" stroke-width="1"/>
<circle cx="137" cy="301" r="3" opacity="1" fill="#000000" stroke="none" stroke-width="1"/>
<circle cx="212" cy="262" r="3" opacity="1" fill="#000000" stroke="none" stroke-width="1"/>
<circle cx="221" cy="232" r="3" opacity="1" fill="#000000" stroke="none" stroke-width="1"/>
<circle cx="242" cy="244" r="3" opacity="1" fill="#000000" stroke="none" stroke-width="1"/>
<circle cx="248" cy="202" r="3" opacity="1" fill="#000000" stroke="none" stroke-width="1"/>
<circle cx="269" cy="70" r="3" opacity="1" fill="#000000" stroke="none" stroke-width="1"/>
<circle cx="281" cy="133" r="3" opacity="1" fill="#000000" stroke="none" stroke-width="1"/>
<circle cx="299" cy="106" r="3" opacity="1" fill="#000000" stroke="none" stroke-width="1"/>
<circle cx="314" cy="232" r="3" opacity="1" fill="#000000" stroke="none" stroke-width="1"/>
<circle cx="329" cy="304" r="3" opacity="1" fill="#000000" stroke="none" stroke-width="1"/>
<circle cx="338" cy="292" r="3" opacity="1" fill="#000000" stroke="none" stroke-width="1"/>
<circle cx="359" cy="319" r="3" opacity="1" fill="#000000" stroke="none" stroke-width="1"/>
<circle cx="55" cy="332" r="3" opacity="1" fill="#FF0000" stroke="none" stroke-width="1"/>
<circle cx="83" cy="345" r="3" opacity="1" fill="#FF0000" stroke="none" stroke-width="1"/>
<circle cx="124" cy="308" r="3" opacity="1" fill="#FF0000" stroke="none" stroke-width="1"/>
<circle cx="244" cy="266" r="3" opacity="1" fill="#FF0000" stroke="none" stroke-width="1"/>
<circle cx="275" cy="33" r="3" opacity="1" fill="#FF0000" stroke="none" stroke-width="1"/>
<circle cx="336" cy="343" r="3" opacity="1" fill="#FF0000" stroke="none" stroke-width="1"/>
<circle cx="356" cy="311" r="3" opacity="1" fill="#FF0000" stroke="none" stroke-width="1"/>
<polyline fill="none" opacity="1" stroke="#FF0000" stroke-width="1" points="55,332 83,345 124,308 244,266 275,33 336,343 356,311 "/>
<polyline fill="none" opacity="1" stroke="#FF0000" stroke-width="1" points="55,332 56,333 57,333 59,334 60,334 62,335 63,335 64,336 66,336 67,336 68,337 70,337 71,337 72,337 73,337 75,338 76,338 77,338 79,338 80,338 81,337 82,337 83,337 85,337 86,337 87,336 88,336 89,335 90,335 92,335 93,334 94,333 95,333 96,332 97,331 98,331 99,330 100,329 101,328 102,327 104,327 105,326 106,325 107,324 108,323 109,322 111,321 112,320 113,319 115,318 116,317 118,316 120,315 121,314 123,313 125,312 127,311 128,310 130,309 132,308 134,307 136,306 139,305 141,304 143,303 145,302 147,301 150,300 152,299 155,298 157,297 160,296 162,295 165,294 168,293 171,292 173,291 176,290 179,289 182,287 185,286 188,285 191,284 194,283 197,281 199,279 202,278 205,276 207,274 210,272 212,269 215,267 217,264 219,262 222,259 224,256 226,253 228,250 230,247 232,244 234,240 236,237 237,233 239,229 241,225 242,221 244,217 246,213 247,208 248,204 250,199 251,194 252,189 253,184 254,179 255,174 256,169 257,163 258,158 259,152 260,146 261,141 262,136 262,131 263,126 264,122 265,118 266,115 267,112 268,109 269,107 270,105 271,103 272,102 273,101 274,100 275,100 276,100 277,100 278,101 279,102 281,103 282,105 283,107 284,109 285,112 287,115 288,119 289,122 291,127 292,131 293,136 295,141 296,146 297,152 299,158 300,165 302,172 303,179 305,187 306,194 308,202 309,209 311,216 312,223 314,229 315,236 317,242 318,247 320,253 321,258 322,263 324,268 325,273 326,277 328,282 329,285 330,289 332,293 333,296 334,299 335,302 337,304 338,306 339,309 340,310 342,312 343,313 344,314 345,315 346,316 347,316 348,317 350,316 351,316 352,316 353,315 354,314 355,313 356,311 "/>
<circle cx="55" cy="332" r="2" opacity="1" fill="none" stroke="#FF0000" stroke-width="1"/>
<circle cx="103" cy="327" r="2" opacity="1" fill="none" stroke="#FF0000" stroke-width="1"/>
<circle cx="184" cy="287" r="2" opacity="1" fill="none" stroke="#FF0000" stroke-width="1"/>
<circle cx="259" cy="150" r="2" opacity="1" fill="none" stroke="#FF0000" stroke-width="1"/>
<circle cx="305" cy="188" r="2" opacity="1" fill="none" stroke="#FF0000" stroke-width="1"/>
<circle cx="356" cy="311" r="2" opacity="1" fill="none" stroke="#FF0000" stroke-width="1"/>
<line opacity="1" stroke="#FF0000" stroke-width="1" x1="330" y1="288" x2="333" y2="296"/>
<polygon opacity="1" fill="#FF0000" points="333,296 334,287 326,290 333,296 "/>
</svg>
