<svg width="400" height="400" viewBox="0 0 400 400" xmlns="http://www.w3.org/2000/svg">
<rect x="0" y="0" width="400" height="400" opacity="0.81" fill="#FFFFFF" stroke="none"/>
<polyline fill="none" opacity="0.2" stroke="#000000" stroke-width="1" points="196,221 196,32 57,111 57,301 196,221 "/>
<polyline fill="none" opacity="0.1" stroke="#000000" stroke-width="1" points="196,221 57,301 "/>
<polyline fill="none" opacity="0.1" stroke="#000000" stroke-width="1" points="196,206 57,285 "/>
<polyline fill="none" opacity="0.1" stroke="#000000" stroke-width="1" points="196,190 57,269 "/>
<polyline fill="none" opacity="0.1" stroke="#000000" stroke-width="1" points="196,174 57,253 "/>
<polyline fill="none" opacity="0.1" stroke="#000000" stroke-width="1" points="196,158 57,237 "/>
<polyline fill="none" opacity="0.1" stroke="#000000" stroke-width="1" points="196,142 57,222 "/>
<polyline fill="none" opacity="0.1" stroke="#000000" stroke-width="1" points="196,127 57,206 "/>
<polyline fill="none" opacity="0.1" stroke="#000000" stroke-width="1" points="196,111 57,190 "/>
<polyline fill="none" opacity="0.1" stroke="#000000" stroke-width="1" points="196,95 57,174 "/>
<polyline fill="none" opacity="0.1" stroke="#000000" stroke-width="1" points="196,79 57,158 "/>
<polyline fill="none" opacity="0.1" stroke="#000000" stroke-width="1" points="196,63 57,143 "/>
<polyline fill="none" opacity="0.1" stroke="#000000" stroke-width="1" points="196,48 57,127 "/>
<polyline fill="none" opacity="0.1" stroke="#000000" stroke-width="1" points="196,32 57,111 "/>
<polyline fill="none" opacity="0.1" stroke="#000000" stroke-width="1" points="196,221 196,32 "/>
<polyline fill="none" opacity="0.1" stroke="#000000" stroke-width="1" points="185,228 185,38 "/>
<polyline fill="none" opacity="0.1" stroke="#000000" stroke-width="1" points="173,235 173,45 "/>
<polyline fill="none" opacity="0.1" stroke="#000000" stroke-width="1" points="162,241 162,52 "/>
<polyline fill="none" opacity="0.1" stroke="#000000" stroke-width="1" points="150,248 150,58 "/>
<polyline fill="none" opacity="0.1" stroke="#000000" stroke-width="1" points="138,254 138,65 "/>
<polyline fill="none" opacity="0.1" stroke="#000000" stroke-width="1" points="127,261 127,71 "/>
<polyline fill="none" opacity="0.1" stroke="#000000" stroke-width="1" points="115,268 115,78 "/>
<polyline fill="none" opacity="0.1" stroke="#000000" stroke-width="1" points="104,274 104,85 "/>
<polyline fill="none" opacity="0.1" stroke="#000000" stroke-width="1" points="92,281 92,91 "/>
<polyline fill="none" opacity="0.1" stroke="#000000" stroke-width="1" points="81,287 81,98 "/>
<polyline fill="none" opacity="0.1" stroke="#000000" stroke-width="1" points="69,294 69,104 "/>
<polyline fill="none" opacity="0.1" stroke="#000000" stroke-width="1" points="57,301 57,111 "/>
<polyline fill="none" opacity="0.2" stroke="#000000" stroke-width="1" points="196,221 57,301 "/>
<polyline fill="none" opacity="0.2" stroke="#000000" stroke-width="1" points="196,190 57,269 "/>
<polyline fill="none" opacity="0.2" stroke="#000000" stroke-width="1" points="196,158 57,237 "/>
<polyline fill="none" opacity="0.2" stroke="#000000" stroke-width="1" points="196,127 57,206 "/>
<polyline fill="none" opacity="0.2" stroke="#000000" stroke-width="1" points="196,95 57,174 "/>
<polyline fill="none" opacity="0.2" stroke="#000000" stroke-width="1" points="196,63 57,143 "/>
<polyline fill="none" opacity="0.2" stroke="#000000" stroke-width="1" points="196,32 57,111 "/>
<polyline fill="none" opacity="0.2" stroke="#000000" stroke-width="1" points="196,221 196,32 "/>
<polyline fill="none" opacity="0.2" stroke="#000000" stroke-width="1" points="173,235 173,45 "/>
<polyline fill="none" opacity="0.2" stroke="#000000" stroke-width="1" points="150,248 150,58 "/>
<polyline fill="none" opacity="0.2" stroke="#000000" stroke-width="1" points="127,261 127,71 "/>
<polyline fill="none" opacity="0.2" stroke="#000000" stroke-width="1" points="104,274 104,85 "/>
<polyline fill="none" opacity="0.2" stroke="#000000" stroke-width="1" points="81,287 81,98 "/>
<polyline fill="none" opacity="0.2" stroke="#000000" stroke-width="1" points="57,301 57,111 "/>
<polyline fill="none" opacity="0.2" stroke="#000000" stroke-width="1" points="196,221 57,301 223,367 362,288 196,221 "/>
<polyline fill="none" opacity="0.1" stroke="#000000" stroke-width="1" points="196,221 57,301 "/>
<polyline fill="none" opacity="0.1" stroke="#000000" stroke-width="1" points="210,227 71,306 "/>
<polyline fill="none" opacity="0.1" stroke="#000000" stroke-width="1" points="224,232 85,312 "/>
<polyline fill="none" opacity="0.1" stroke="#000000" stroke-width="1" points="238,238 99,317 "/>
<polyline fill="none" opacity="0.1" stroke="#000000" stroke-width="1" points="252,244 112,323 "/>
<polyline fill="none" opacity="0.1" stroke="#000000" stroke-width="1" points="265,249 126,328 "/>
<polyline fill="none" opacity="0.1" stroke="#000000" stroke-width="1" points="279,255 140,334 "/>
<polyline fill="none" opacity="0.1" stroke="#000000" stroke-width="1" points="293,260 154,339 "/>
<polyline fill="none" opacity="0.1" stroke="#000000" stroke-width="1" points="307,266 167,345 "/>
<polyline fill="none" opacity="0.1" stroke="#000000" stroke-width="1" points="320,271 181,351 "/>
<polyline fill="none" opacity="0.1" stroke="#000000" stroke-width="1" points="334,277 195,356 "/>
<polyline fill="none" opacity="0.1" stroke="#000000" stroke-width="1" points="348,282 209,362 "/>
<polyline fill="none" opacity="0.1" stroke="#000000" stroke-width="1" points="362,288 223,367 "/>
<polyline fill="none" opacity="0.1" stroke="#000000" stroke-width="1" points="196,221 362,288 "/>
<polyline fill="none" opacity="0.1" stroke="#000000" stroke-width="1" points="185,228 350,295 "/>
<polyline fill="none" opacity="0.1" stroke="#000000" stroke-width="1" points="173,235 338,301 "/>
<polyline fill="none" opacity="0.1" stroke="#000000" stroke-width="1" points="162,241 327,308 "/>
<polyline fill="none" opacity="0.1" stroke="#000000" stroke-width="1" points="150,248 315,314 "/>
<polyline fill="none" opacity="0.1" stroke="#000000" stroke-width="1" points="138,254 304,321 "/>
<polyline fill="none" opacity="0.1" stroke="#000000" stroke-width="1" points="127,261 292,328 "/>
<polyline fill="none" opacity="0.1" stroke="#000000" stroke-width="1" points="115,268 281,334 "/>
<polyline fill="none" opacity="0.1" stroke="#000000" stroke-width="1" points="104,274 269,341 "/>
<polyline fill="none" opacity="0.1" stroke="#000000" stroke-width="1" points="92,281 257,347 "/>
<polyline fill="none" opacity="0.1" stroke="#000000" stroke-width="1" points="81,287 246,354 "/>
<polyline fill="none" opacity="0.1" stroke="#000000" stroke-width="1" points="69,294 234,361 "/>
<polyline fill="none" opacity="0.1" stroke="#000000" stroke-width="1" points="57,301 223,367 "/>
<polyline fill="none" opacity="0.2" stroke="#000000" stroke-width="1" points="196,221 57,301 "/>
<polyline fill="none" opacity="0.2" stroke="#000000" stroke-width="1" points="224,232 85,312 "/>
<polyline fill="none" opacity="0.2" stroke="#000000" stroke-width="1" points="252,244 112,323 "/>
<polyline fill="none" opacity="0.2" stroke="#000000" stroke-width="1" points="279,255 140,334 "/>
<polyline fill="none" opacity="0.2" stroke="#000000" stroke-width="1" points="307,266 167,345 "/>
<polyline fill="none" opacity="0.2" stroke="#000000" stroke-width="1" points="334,277 195,356 "/>
<polyline fill="none" opacity="0.2" stroke="#000000" stroke-width="1" points="362,288 223,367 "/>
<polyline fill="none" opacity="0.2" stroke="#000000" stroke-width="1" points="196,221 362,288 "/>
<polyline fill="none" opacity="0.2" stroke="#000000" stroke-width="1" points="173,235 338,301 "/>
<polyline fill="none" opacity="0.2" stroke="#000000" stroke-width="1" points="150,248 315,314 "/>
<polyline fill="none" opacity="0.2" stroke="#000000" stroke-width="1" points="127,261 292,328 "/>
<polyline fill="none" opacity="0.2" stroke="#000000" stroke-width="1" points="104,274 269,341 "/>
<polyline fill="none" opacity="0.2" stroke="#000000" stroke-width="1" points="81,287 246,354 "/>
<polyline fill="none" opacity="0.2" stroke="#000000" stroke-width="1" points="57,301 223,367 "/>
<polyline fill="none" opacity="0.2" stroke="#000000" stroke-width="1" points="196,221 362,288 362,98 196,32 196,221 "/>
<polyline fill="none" opacity="0.1" stroke="#000000" stroke-width="1" points="196,221 196,32 "/>
<polyline fill="none" opacity="0.1" stroke="#000000" stroke-width="1" points="210,227 210,37 "/>
<polyline fill="none" opacity="0.1" stroke="#000000" stroke-width="1" points="224,232 224,43 "/>
<polyline fill="none" opacity="0.1" stroke="#000000" stroke-width="1" points="238,238 238,48 "/>
<polyline fill="none" opacity="0.1" stroke="#000000" stroke-width="1" points="252,244 252,54 "/>
<polyline fill="none" opacity="0.1" stroke="#000000" stroke-width="1" points="265,249 265,60 "/>
<polyline fill="none" opacity="0.1" stroke="#000000" stroke-width="1" points="279,255 279,65 "/>
<polyline fill="none" opacity="0.1" stroke="#000000" stroke-width="1" points="293,260 293,71 "/>
<polyline fill="none" opacity="0.1" stroke="#000000" stroke-width="1" points="307,266 307,76 "/>
<polyline fill="none" opacity="0.1" stroke="#000000" stroke-width="1" points="320,271 320,82 "/>
<polyline fill="none" opacity="0.1" stroke="#000000" stroke-width="1" points="334,277 334,87 "/>
<polyline fill="none" opacity="0.1" stroke="#000000" stroke-width="1" points="348,282 348,93 "/>
<polyline fill="none" opacity="0.1" stroke="#000000" stroke-width="1" points="362,288 362,98 "/>
<polyline fill="none" opacity="0.1" stroke="#000000" stroke-width="1" points="196,221 362,288 "/>
<polyline fill="none" opacity="0.1" stroke="#000000" stroke-width="1" points="196,206 362,272 "/>
<polyline fill="none" opacity="0.1" stroke="#000000" stroke-width="1" points="196,190 362,256 "/>
<polyline fill="none" opacity="0.1" stroke="#000000" stroke-width="1" points="196,174 362,241 "/>
<polyline fill="none" opacity="0.1" stroke="#000000" stroke-width="1" points="196,158 362,225 "/>
<polyline fill="none" opacity="0.1" stroke="#000000" stroke-width="1" points="196,142 362,209 "/>
<polyline fill="none" opacity="0.1" stroke="#000000" stroke-width="1" points="196,127 362,193 "/>
<polyline fill="none" opacity="0.1" stroke="#000000" stroke-width="1" points="196,111 362,177 "/>
<polyline fill="none" opacity="0.1" stroke="#000000" stroke-width="1" points="196,95 362,162 "/>
<polyline fill="none" opacity="0.1" stroke="#000000" stroke-width="1" points="196,79 362,146 "/>
<polyline fill="none" opacity="0.1" stroke="#000000" stroke-width="1" points="196,63 362,130 "/>
<polyline fill="none" opacity="0.1" stroke="#000000" stroke-width="1" points="196,48 362,114 "/>
<polyline fill="none" opacity="0.1" stroke="#000000" stroke-width="1" points="196,32 362,98 "/>
<polyline fill="none" opacity="0.2" stroke="#000000" stroke-width="1" points="196,221 196,32 "/>
<polyline fill="none" opacity="0.2" stroke="#000000" stroke-width="1" points="224,232 224,43 "/>
<polyline fill="none" opacity="0.2" stroke="#000000" stroke-width="1" points="252,244 252,54 "/>
<polyline fill="none" opacity="0.2" stroke="#000000" stroke-width="1" points="279,255 279,65 "/>
<polyline fill="none" opacity="0.2" stroke="#000000" stroke-width="1" points="307,266 307,76 "/>
<polyline fill="none" opacity="0.2" stroke="#000000" stroke-width="1" points="334,277 334,87 "/>
<polyline fill="none" opacity="0.2" stroke="#000000" stroke-width="1" points="362,288 362,98 "/>
<polyline fill="none" opacity="0.2" stroke="#000000" stroke-width="1" points="196,221 362,288 "/>
<polyline fill="none" opacity="0.2" stroke="#000000" stroke-width="1" points="196,190 362,256 "/>
<polyline fill="none" opacity="0.2" stroke="#000000" stroke-width="1" points="196,158 362,225 "/>
<polyline fill="none" opacity="0.2" stroke="#000000" stroke-width="1" points="196,127 362,193 "/>
<polyline fill="none" opacity="0.2" stroke="#000000" stroke-width="1" points="196,95 362,162 "/>
<polyline fill="none" opacity="0.2" stroke="#000000" stroke-width="1" points="196,63 362,130 "/>
<polyline fill="none" opacity="0.2" stroke="#000000" stroke-width="1" points="196,32 362,98 "/>
<polyline fill="none" opacity="0.8" stroke="#000000" stroke-width="1" points="57,301 223,367 "/>
<polyline fill="none" opacity="0.8" stroke="#000000" stroke-width="1" points="57,301 57,306 "/>
<text x="57" y="311" dy="0.76em" text-anchor="middle" font-family="sans-serif" font-size="9.67741935483871" opacity="1" fill="#000000">
-3.0
</text>
<polyline fill="none" opacity="0.8" stroke="#000000" stroke-width="1" points="85,312 85,317 "/>
<text x="85" y="322" dy="0.76em" text-anchor="middle" font-family="sans-serif" font-size="9.67741935483871" opacity="1" fill="#000000">
-2.0
</text>
<polyline fill="none" opacity="0.8" stroke="#000000" stroke-width="1" points="112,323 112,328 "/>
<text x="112" y="333" dy="0.76em" text-anchor="middle" font-family="sans-serif" font-size="9.67741935483871" opacity="1" fill="#000000">
-1.0
</text>
<polyline fill="none" opacity="0.8" stroke="#000000" stroke-width="1" points="140,334 140,339 "/>
<text x="140" y="344" dy="0.76em" text-anchor="middle" font-family="sans-serif" font-size="9.67741935483871" opacity="1" fill="#000000">
0.0
</text>
<polyline fill="none" opacity="0.8" stroke="#000000" stroke-width="1" points="167,345 167,350 "/>
<text x="167" y="355" dy="0.76em" text-anchor="middle" font-family="sans-serif" font-size="9.67741935483871" opacity="1" fill="#000000">
1.0
</text>
<polyline fill="none" opacity="0.8" stroke="#000000" stroke-width="1" points="195,356 195,361 "/>
<text x="195" y="366" dy="0.76em" text-anchor="middle" font-family="sans-serif" font-size="9.67741935483871" opacity="1" fill="#000000">
2.0
</text>
<polyline fill="none" opacity="0.8" stroke="#000000" stroke-width="1" points="223,367 223,372 "/>
<text x="223" y="377" dy="0.76em" text-anchor="middle" font-family="sans-serif" font-size="9.67741935483871" opacity="1" fill="#000000">
3.0
</text>
<polyline fill="none" opacity="0.8" stroke="#000000" stroke-width="1" points="57,301 57,111 "/>
<polyline fill="none" opacity="0.8" stroke="#000000" stroke-width="1" points="57,301 52,301 "/>
<text x="47" y="301" dy="0.5ex" text-anchor="end" font-family="sans-serif" font-size="9.67741935483871" opacity="1" fill="#000000">
-3.0
</text>
<polyline fill="none" opacity="0.8" stroke="#000000" stroke-width="1" points="57,269 52,269 "/>
<text x="47" y="269" dy="0.5ex" text-anchor="end" font-family="sans-serif" font-size="9.67741935483871" opacity="1" fill="#000000">
-2.0
</text>
<polyline fill="none" opacity="0.8" stroke="#000000" stroke-width="1" points="57,237 52,237 "/>
<text x="47" y="237" dy="0.5ex" text-anchor="end" font-family="sans-serif" font-size="9.67741935483871" opacity="1" fill="#000000">
-1.0
</text>
<polyline fill="none" opacity="0.8" stroke="#000000" stroke-width="1" points="57,206 52,206 "/>
<text x="47" y="206" dy="0.5ex" text-anchor="end" font-family="sans-serif" font-size="9.67741935483871" opacity="1" fill="#000000">
0.0
</text>
<polyline fill="none" opacity="0.8" stroke="#000000" stroke-width="1" points="57,174 52,174 "/>
<text x="47" y="174" dy="0.5ex" text-anchor="end" font-family="sans-serif" font-size="9.67741935483871" opacity="1" fill="#000000">
1.0
</text>
<polyline fill="none" opacity="0.8" stroke="#000000" stroke-width="1" points="57,143 52,143 "/>
<text x="47" y="143" dy="0.5ex" text-anchor="end" font-family="sans-serif" font-size="9.67741935483871" opacity="1" fill="#000000">
2.0
</text>
<polyline fill="none" opacity="0.8" stroke="#000000" stroke-width="1" points="57,111 52,111 "/>
<text x="47" y="111" dy="0.5ex" text-anchor="end" font-family="sans-serif" font-size="9.67741935483871" opacity="1" fill="#000000">
3.0
</text>
<polyline fill="none" opacity="0.8" stroke="#000000" stroke-width="1" points="362,288 223,367 "/>
<polyline fill="none" opacity="0.8" stroke="#000000" stroke-width="1" points="362,288 362,293 "/>
<text x="362" y="298" dy="0.76em" text-anchor="middle" font-family="sans-serif" font-size="9.67741935483871" opacity="1" fill="#000000">
-3.0
</text>
<polyline fill="none" opacity="0.8" stroke="#000000" stroke-width="1" points="338,301 338,306 "/>
<text x="338" y="311" dy="0.76em" text-anchor="middle" font-family="sans-serif" font-size="9.67741935483871" opacity="1" fill="#000000">
-2.0
</text>
<polyline fill="none" opacity="0.8" stroke="#000000" stroke-width="1" points="315,314 315,319 "/>
<text x="315" y="324" dy="0.76em" text-anchor="middle" font-family="sans-serif" font-size="9.67741935483871" opacity="1" fill="#000000">
-1.0
</text>
<polyline fill="none" opacity="0.8" stroke="#000000" stroke-width="1" points="292,328 292,333 "/>
<text x="292" y="338" dy="0.76em" text-anchor="middle" font-family="sans-serif" font-size="9.67741935483871" opacity="1" fill="#000000">
0.0
</text>
<polyline fill="none" opacity="0.8" stroke="#000000" stroke-width="1" points="269,341 269,346 "/>
<text x="269" y="351" dy="0.76em" text-anchor="middle" font-family="sans-serif" font-size="9.67741935483871" opacity="1" fill="#000000">
1.0
</text>
<polyline fill="none" opacity="0.8" stroke="#000000" stroke-width="1" points="246,354 246,359 "/>
<text x="246" y="364" dy="0.76em" text-anchor="middle" font-family="sans-serif" font-size="9.67741935483871" opacity="1" fill="#000000">
2.0
</text>
<polyline fill="none" opacity="0.8" stroke="#000000" stroke-width="1" points="223,367 223,372 "/>
<text x="223" y="377" dy="0.76em" text-anchor="middle" font-family="sans-serif" font-size="9.67741935483871" opacity="1" fill="#000000">
3.0
</text>
<text x="313" y="361" dy="0.5ex" text-anchor="middle" font-family="sans-serif" font-size="12.903225806451614" opacity="1" fill="#000000" font-style="italic">
x
</text>
<text x="122" y="369" dy="0.5ex" text-anchor="middle" font-family="sans-serif" font-size="12.903225806451614" opacity="1" fill="#000000" font-style="italic">
y
</text>
<text x="18" y="207" dy="0.5ex" text-anchor="middle" font-family="sans-serif" font-size="12.903225806451614" opacity="1" fill="#000000" font-style="italic">
z
</text>
<circle cx="306" cy="258" r="3" opacity="1" fill="#000000" stroke="none" stroke-width="1"/>
<circle cx="286" cy="272" r="3" opacity="1" fill="#000000" stroke="none" stroke-width="1"/>
<circle cx="263" cy="292" r="3" opacity="1" fill="#000000" stroke="none" stroke-width="1"/>
<circle cx="243" cy="292" r="3" opacity="1" fill="#000000" stroke="none" stroke-width="1"/>
<circle cx="223" cy="314" r="3" opacity="1" fill="#000000" stroke="none" stroke-width="1"/>
<circle cx="223" cy="279" r="3" opacity="1" fill="#000000" stroke="none" stroke-width="1"/>
<circle cx="228" cy="245" r="3" opacity="1" fill="#000000" stroke="none" stroke-width="1"/>
<circle cx="215" cy="216" r="3" opacity="1" fill="#000000" stroke="none" stroke-width="1"/>
<circle cx="215" cy="181" r="3" opacity="1" fill="#000000" stroke="none" stroke-width="1"/>
<circle cx="191" cy="168" r="3" opacity="1" fill="#000000" stroke="none" stroke-width="1"/>
<circle cx="155" cy="156" r="3" opacity="1" fill="#000000" stroke="none" stroke-width="1"/>
<circle cx="135" cy="156" r="3" opacity="1" fill="#000000" stroke="none" stroke-width="1"/>
<circle cx="106" cy="145" r="3" opacity="1" fill="#000000" stroke="none" stroke-width="1"/>
<circle cx="308" cy="257" r="3" opacity="1" fill="#FF0000" stroke="none" stroke-width="1"/>
<circle cx="294" cy="269" r="3" opacity="1" fill="#FF0000" stroke="none" stroke-width="1"/>
<circle cx="275" cy="283" r="3" opacity="1" fill="#FF0000" stroke="none" stroke-width="1"/>
<circle cx="254" cy="296" r="3" opacity="1" fill="#FF0000" stroke="none" stroke-width="1"/>
<circle cx="234" cy="302" r="3" opacity="1" fill="#FF0000" stroke="none" stroke-width="1"/>
<circle cx="225" cy="285" r="3" opacity="1" fill="#FF0000" stroke="none" stroke-width="1"/>
<circle cx="224" cy="249" r="3" opacity="1" fill="#FF0000" stroke="none" stroke-width="1"/>
<circle cx="218" cy="208" r="3" opacity="1" fill="#FF0000" stroke="none" stroke-width="1"/>
<circle cx="201" cy="177" r="3" opacity="1" fill="#FF0000" stroke="none" stroke-width="1"/>
<circle cx="173" cy="159" r="3" opacity="1" fill="#FF0000" stroke="none" stroke-width="1"/>
<circle cx="144" cy="152" r="3" opacity="1" fill="#FF0000" stroke="none" stroke-width="1"/>
<circle cx="122" cy="149" r="3" opacity="1" fill="#FF0000" stroke="none" stroke-width="1"/>
<circle cx="104" cy="145" r="3" opacity="1" fill="#FF0000" stroke="none" stroke-width="1"/>
<polyline fill="none" opacity="1" stroke="#FF0000" stroke-width="1" points="308,257 294,269 275,283 254,296 234,302 225,285 224,249 218,208 201,177 173,159 144,152 122,149 104,145 "/>
<polyline fill="none" opacity="1" stroke="#FF0000" stroke-width="1" points="308,257 306,260 303,261 302,262 300,264 298,265 296,267 294,268 293,269 292,270 290,272 288,273 287,274 285,275 284,276 283,277 281,278 280,279 279,279 277,280 276,282 275,283 274,283 273,284 272,285 271,285 269,287 268,287 267,288 266,289 265,289 264,290 262,291 261,291 260,292 259,293 258,293 257,294 256,294 255,295 254,295 253,295 252,296 251,297 250,296 249,297 247,298 246,298 245,298 245,298 244,299 243,299 242,299 241,299 240,299 240,299 239,299 238,299 237,299 236,299 236,298 235,298 234,297 234,297 234,296 233,296 232,295 231,295 231,294 231,293 230,293 229,292 229,291 228,290 228,289 228,288 228,287 228,285 227,284 227,283 227,282 227,280 226,279 226,277 226,276 225,274 225,272 225,271 225,269 225,267 225,266 224,264 224,262 224,260 224,258 224,257 223,255 223,253 223,251 223,249 223,247 223,245 223,244 223,242 222,240 222,238 221,235 221,233 220,231 220,230 220,228 220,226 219,224 219,222 219,220 218,219 218,216 217,214 216,213 216,211 215,209 215,207 214,205 214,204 213,202 212,201 212,199 211,197 210,196 209,194 208,192 208,191 207,189 206,187 205,186 204,185 203,184 202,182 201,181 200,180 199,179 197,177 196,176 195,175 194,173 193,173 191,172 190,171 188,170 187,169 185,168 184,167 183,166 181,166 180,164 179,164 177,163 176,163 175,162 173,161 172,160 170,160 169,159 167,159 166,159 164,158 163,157 161,157 160,156 159,156 157,156 156,155 154,155 152,154 151,154 149,154 148,153 146,153 145,153 143,153 142,152 140,152 138,151 137,151 135,151 133,151 132,150 130,150 128,149 126,149 125,149 122,148 120,148 118,148 116,148 114,147 111,147 109,146 106,146 104,145 "/>
<circle cx="308" cy="257" r="2" opacity="1" fill="none" stroke="#FF0000" stroke-width="1"/>
<circle cx="276" cy="281" r="2" opacity="1" fill="none" stroke="#FF0000" stroke-width="1"/>
<circle cx="254" cy="295" r="2" opacity="1" fill="none" stroke="#FF0000" stroke-width="1"/>
<circle cx="236" cy="298" r="2" opacity="1" fill="none" stroke="#FF0000" stroke-width="1"/>
<circle cx="227" cy="282" r="2" opacity="1" fill="none" stroke="#FF0000" stroke-width="1"/>
<circle cx="223" cy="249" r="2" opacity="1" fill="none" stroke="#FF0000" stroke-width="1"/>
<circle cx="216" cy="210" r="2" opacity="1" fill="none" stroke="#FF0000" stroke-width="1"/>
<circle cx="199" cy="179" r="2" opacity="1" fill="none" stroke="#FF0000" stroke-width="1"/>
<circle cx="173" cy="161" r="2" opacity="1" fill="none" stroke="#FF0000" stroke-width="1"/>
<circle cx="143" cy="153" r="2" opacity="1" fill="none" stroke="#FF0000" stroke-width="1"/>
<circle cx="104" cy="145" r="2" opacity="1" fill="none" stroke="#FF0000" stroke-width="1"/>
<line opacity="1" stroke="#FF0000" stroke-width="1" x1="150" y1="154" x2="143" y2="153"/>
<polygon opacity="1" fill="#FF0000" points="143,153 149,157 150,151 143,153 "/>
</svg>
