<svg width="400" height="400" viewBox="0 0 400 400" xmlns="http://www.w3.org/2000/svg">
<rect x="0" y="0" width="400" height="400" opacity="0.81" fill="#FFFFFF" stroke="none"/>
<line opacity="0.1" stroke="#000000" stroke-width="1" x1="30" y1="369" x2="30" y2="10"/>
<line opacity="0.1" stroke="#000000" stroke-width="1" x1="35" y1="369" x2="35" y2="10"/>
<line opacity="0.1" stroke="#000000" stroke-width="1" x1="41" y1="369" x2="41" y2="10"/>
<line opacity="0.1" stroke="#000000" stroke-width="1" x1="47" y1="369" x2="47" y2="10"/>
<line opacity="0.1" stroke="#000000" stroke-width="1" x1="53" y1="369" x2="53" y2="10"/>
<line opacity="0.1" stroke="#000000" stroke-width="1" x1="59" y1="369" x2="59" y2="10"/>
<line opacity="0.1" stroke="#000000" stroke-width="1" x1="65" y1="369" x2="65" y2="10"/>
<line opacity="0.1" stroke="#000000" stroke-width="1" x1="71" y1="369" x2="71" y2="10"/>
<line opacity="0.1" stroke="#000000" stroke-width="1" x1="77" y1="369" x2="77" y2="10"/>
<line opacity="0.1" stroke="#000000" stroke-width="1" x1="83" y1="369" x2="83" y2="10"/>
<line opacity="0.1" stroke="#000000" stroke-width="1" x1="89" y1="369" x2="89" y2="10"/>
<line opacity="0.1" stroke="#000000" stroke-width="1" x1="95" y1="369" x2="95" y2="10"/>
<line opacity="0.1" stroke="#000000" stroke-width="1" x1="101" y1="369" x2="101" y2="10"/>
<line opacity="0.1" stroke="#000000" stroke-width="1" x1="107" y1="369" x2="107" y2="10"/>
<line opacity="0.1" stroke="#000000" stroke-width="1" x1="113" y1="369" x2="113" y2="10"/>
<line opacity="0.1" stroke="#000000" stroke-width="1" x1="119" y1="369" x2="119" y2="10"/>
<line opacity="0.1" stroke="#000000" stroke-width="1" x1="125" y1="369" x2="125" y2="10"/>
<line opacity="0.1" stroke="#000000" stroke-width="1" x1="131" y1="369" x2="131" y2="10"/>
<line opacity="0.1" stroke="#000000" stroke-width="1" x1="137" y1="369" x2="137" y2="10"/>
<line opacity="0.1" stroke="#000000" stroke-width="1" x1="143" y1="369" x2="143" y2="10"/>
<line opacity="0.1" stroke="#000000" stroke-width="1" x1="149" y1="369" x2="149" y2="10"/>
<line opacity="0.1" stroke="#000000" stroke-width="1" x1="155" y1="369" x2="155" y2="10"/>
<line opacity="0.1" stroke="#000000" stroke-width="1" x1="161" y1="369" x2="161" y2="10"/>
<line opacity="0.1" stroke="#000000" stroke-width="1" x1="167" y1="369" x2="167" y2="10"/>
<line opacity="0.1" stroke="#000000" stroke-width="1" x1="173" y1="369" x2="173" y2="10"/>
<line opacity="0.1" stroke="#000000" stroke-width="1" x1="179" y1="369" x2="179" y2="10"/>
<line opacity="0.1" stroke="#000000" stroke-width="1" x1="185" y1="369" x2="185" y2="10"/>
<line opacity="0.1" stroke="#000000" stroke-width="1" x1="191" y1="369" x2="191" y2="10"/>
<line opacity="0.1" stroke="#000000" stroke-width="1" x1="197" y1="369" x2="197" y2="10"/>
<line opacity="0.1" stroke="#000000" stroke-width="1" x1="203" y1="369" x2="203" y2="10"/>
<line opacity="0.1" stroke="#000000" stroke-width="1" x1="209" y1="369" x2="209" y2="10"/>
<line opacity="0.1" stroke="#000000" stroke-width="1" x1="215" y1="369" x2="215" y2="10"/>
<line opacity="0.1" stroke="#000000" stroke-width="1" x1="221" y1="369" x2="221" y2="10"/>
<line opacity="0.1" stroke="#000000" stroke-width="1" x1="227" y1="369" x2="227" y2="10"/>
<line opacity="0.1" stroke="#000000" stroke-width="1" x1="233" y1="369" x2="233" y2="10"/>
<line opacity="0.1" stroke="#000000" stroke-width="1" x1="239" y1="369" x2="239" y2="10"/>
<line opacity="0.1" stroke="#000000" stroke-width="1" x1="245" y1="369" x2="245" y2="10"/>
<line opacity="0.1" stroke="#000000" stroke-width="1" x1="251" y1="369" x2="251" y2="10"/>
<line opacity="0.1" stroke="#000000" stroke-width="1" x1="257" y1="369" x2="257" y2="10"/>
<line opacity="0.1" stroke="#000000" stroke-width="1" x1="263" y1="369" x2="263" y2="10"/>
<line opacity="0.1" stroke="#000000" stroke-width="1" x1="269" y1="369" x2="269" y2="10"/>
<line opacity="0.1" stroke="#000000" stroke-width="1" x1="275" y1="369" x2="275" y2="10"/>
<line opacity="0.1" stroke="#000000" stroke-width="1" x1="281" y1="369" x2="281" y2="10"/>
<line opacity="0.1" stroke="#000000" stroke-width="1" x1="287" y1="369" x2="287" y2="10"/>
<line opacity="0.1" stroke="#000000" stroke-width="1" x1="293" y1="369" x2="293" y2="10"/>
<line opacity="0.1" stroke="#000000" stroke-width="1" x1="299" y1="369" x2="299" y2="10"/>
<line opacity="0.1" stroke="#000000" stroke-width="1" x1="305" y1="369" x2="305" y2="10"/>
<line opacity="0.1" stroke="#000000" stroke-width="1" x1="311" y1="369" x2="311" y2="10"/>
<line opacity="0.1" stroke="#000000" stroke-width="1" x1="317" y1="369" x2="317" y2="10"/>
<line opacity="0.1" stroke="#000000" stroke-width="1" x1="323" y1="369" x2="323" y2="10"/>
<line opacity="0.1" stroke="#000000" stroke-width="1" x1="329" y1="369" x2="329" y2="10"/>
<line opacity="0.1" stroke="#000000" stroke-width="1" x1="335" y1="369" x2="335" y2="10"/>
<line opacity="0.1" stroke="#000000" stroke-width="1" x1="341" y1="369" x2="341" y2="10"/>
<line opacity="0.1" stroke="#000000" stroke-width="1" x1="347" y1="369" x2="347" y2="10"/>
<line opacity="0.1" stroke="#000000" stroke-width="1" x1="353" y1="369" x2="353" y2="10"/>
<line opacity="0.1" stroke="#000000" stroke-width="1" x1="359" y1="369" x2="359" y2="10"/>
<line opacity="0.1" stroke="#000000" stroke-width="1" x1="365" y1="369" x2="365" y2="10"/>
<line opacity="0.1" stroke="#000000" stroke-width="1" x1="371" y1="369" x2="371" y2="10"/>
<line opacity="0.1" stroke="#000000" stroke-width="1" x1="377" y1="369" x2="377" y2="10"/>
<line opacity="0.1" stroke="#000000" stroke-width="1" x1="383" y1="369" x2="383" y2="10"/>
<line opacity="0.1" stroke="#000000" stroke-width="1" x1="389" y1="369" x2="389" y2="10"/>
<line opacity="0.1" stroke="#000000" stroke-width="1" x1="30" y1="369" x2="389" y2="369"/>
<line opacity="0.1" stroke="#000000" stroke-width="1" x1="30" y1="364" x2="389" y2="364"/>
<line opacity="0.1" stroke="#000000" stroke-width="1" x1="30" y1="358" x2="389" y2="358"/>
<line opacity="0.1" stroke="#000000" stroke-width="1" x1="30" y1="352" x2="389" y2="352"/>
<line opacity="0.1" stroke="#000000" stroke-width="1" x1="30" y1="346" x2="389" y2="346"/>
<line opacity="0.1" stroke="#000000" stroke-width="1" x1="30" y1="340" x2="389" y2="340"/>
<line opacity="0.1" stroke="#000000" stroke-width="1" x1="30" y1="334" x2="389" y2="334"/>
<line opacity="0.1" stroke="#000000" stroke-width="1" x1="30" y1="328" x2="389" y2="328"/>
<line opacity="0.1" stroke="#000000" stroke-width="1" x1="30" y1="322" x2="389" y2="322"/>
<line opacity="0.1" stroke="#000000" stroke-width="1" x1="30" y1="316" x2="389" y2="316"/>
<line opacity="0.1" stroke="#000000" stroke-width="1" x1="30" y1="310" x2="389" y2="310"/>
<line opacity="0.1" stroke="#000000" stroke-width="1" x1="30" y1="304" x2="389" y2="304"/>
<line opacity="0.1" stroke="#000000" stroke-width="1" x1="30" y1="298" x2="389" y2="298"/>
<line opacity="0.1" stroke="#000000" stroke-width="1" x1="30" y1="292" x2="389" y2="292"/>
<line opacity="0.1" stroke="#000000" stroke-width="1" x1="30" y1="286" x2="389" y2="286"/>
<line opacity="0.1" stroke="#000000" stroke-width="1" x1="30" y1="280" x2="389" y2="280"/>
<line opacity="0.1" stroke="#000000" stroke-width="1" x1="30" y1="274" x2="389" y2="274"/>
<line opacity="0.1" stroke="#000000" stroke-width="1" x1="30" y1="268" x2="389" y2="268"/>
<line opacity="0.1" stroke="#000000" stroke-width="1" x1="30" y1="262" x2="389" y2="262"/>
<line opacity="0.1" stroke="#000000" stroke-width="1" x1="30" y1="256" x2="389" y2="256"/>
<line opacity="0.1" stroke="#000000" stroke-width="1" x1="30" y1="250" x2="389" y2="250"/>
<line opacity="0.1" stroke="#000000" stroke-width="1" x1="30" y1="244" x2="389" y2="244"/>
<line opacity="0.1" stroke="#000000" stroke-width="1" x1="30" y1="238" x2="389" y2="238"/>
<line opacity="0.1" stroke="#000000" stroke-width="1" x1="30" y1="232" x2="389" y2="232"/>
<line opacity="0.1" stroke="#000000" stroke-width="1" x1="30" y1="226" x2="389" y2="226"/>
<line opacity="0.1" stroke="#000000" stroke-width="1" x1="30" y1="220" x2="389" y2="220"/>
<line opacity="0.1" stroke="#000000" stroke-width="1" x1="30" y1="214" x2="389" y2="214"/>
<line opacity="0.1" stroke="#000000" stroke-width="1" x1="30" y1="208" x2="389" y2="208"/>
<line opacity="0.1" stroke="#000000" stroke-width="1" x1="30" y1="202" x2="389" y2="202"/>
<line opacity="0.1" stroke="#000000" stroke-width="1" x1="30" y1="196" x2="389" y2="196"/>
<line opacity="0.1" stroke="#000000" stroke-width="1" x1="30" y1="190" x2="389" y2="190"/>
<line opacity="0.1" stroke="#000000" stroke-width="1" x1="30" y1="184" x2="389" y2="184"/>
<line opacity="0.1" stroke="#000000" stroke-width="1" x1="30" y1="178" x2="389" y2="178"/>
<line opacity="0.1" stroke="#000000" stroke-width="1" x1="30" y1="172" x2="389" y2="172"/>
<line opacity="0.1" stroke="#000000" stroke-width="1" x1="30" y1="166" x2="389" y2="166"/>
<line opacity="0.1" stroke="#000000" stroke-width="1" x1="30" y1="160" x2="389" y2="160"/>
<line opacity="0.1" stroke="#000000" stroke-width="1" x1="30" y1="154" x2="389" y2="154"/>
<line opacity="0.1" stroke="#000000" stroke-width="1" x1="30" y1="148" x2="389" y2="148"/>
<line opacity="0.1" stroke="#000000" stroke-width="1" x1="30" y1="142" x2="389" y2="142"/>
<line opacity="0.1" stroke="#000000" stroke-width="1" x1="30" y1="136" x2="389" y2="136"/>
<line opacity="0.1" stroke="#000000" stroke-width="1" x1="30" y1="130" x2="389" y2="130"/>
<line opacity="0.1" stroke="#000000" stroke-width="1" x1="30" y1="124" x2="389" y2="124"/>
<line opacity="0.1" stroke="#000000" stroke-width="1" x1="30" y1="118" x2="389" y2="118"/>
<line opacity="0.1" stroke="#000000" stroke-width="1" x1="30" y1="112" x2="389" y2="112"/>
<line opacity="0.1" stroke="#000000" stroke-width="1" x1="30" y1="106" x2="389" y2="106"/>
<line opacity="0.1" stroke="#000000" stroke-width="1" x1="30" y1="100" x2="389" y2="100"/>
<line opacity="0.1" stroke="#000000" stroke-width="1" x1="30" y1="94" x2="389" y2="94"/>
<line opacity="0.1" stroke="#000000" stroke-width="1" x1="30" y1="88" x2="389" y2="88"/>
<line opacity="0.1" stroke="#000000" stroke-width="1" x1="30" y1="82" x2="389" y2="82"/>
<line opacity="0.1" stroke="#000000" stroke-width="1" x1="30" y1="76" x2="389" y2="76"/>
<line opacity="0.1" stroke="#000000" stroke-width="1" x1="30" y1="70" x2="389" y2="70"/>
<line opacity="0.1" stroke="#000000" stroke-width="1" x1="30" y1="64" x2="389" y2="64"/>
<line opacity="0.1" stroke="#000000" stroke-width="1" x1="30" y1="58" x2="389" y2="58"/>
<line opacity="0.1" stroke="#000000" stroke-width="1" x1="30" y1="52" x2="389" y2="52"/>
<line opacity="0.1" stroke="#000000" stroke-width="1" x1="30" y1="46" x2="389" y2="46"/>
<line opacity="0.1" stroke="#000000" stroke-width="1" x1="30" y1="40" x2="389" y2="40"/>
<line opacity="0.1" stroke="#000000" stroke-width="1" x1="30" y1="34" x2="389" y2="34"/>
<line opacity="0.1" stroke="#000000" stroke-width="1" x1="30" y1="28" x2="389" y2="28"/>
<line opacity="0.1" stroke="#000000" stroke-width="1" x1="30" y1="22" x2="389" y2="22"/>
<line opacity="0.1" stroke="#000000" stroke-width="1" x1="30" y1="16" x2="389" y2="16"/>
<line opacity="0.1" stroke="#000000" stroke-width="1" x1="30" y1="10" x2="389" y2="10"/>
<line opacity="0.2" stroke="#000000" stroke-width="1" x1="30" y1="369" x2="30" y2="10"/>
<line opacity="0.2" stroke="#000000" stroke-width="1" x1="89" y1="369" x2="89" y2="10"/>
<line opacity="0.2" stroke="#000000" stroke-width="1" x1="149" y1="369" x2="149" y2="10"/>
<line opacity="0.2" stroke="#000000" stroke-width="1" x1="209" y1="369" x2="209" y2="10"/>
<line opacity="0.2" stroke="#000000" stroke-width="1" x1="269" y1="369" x2="269" y2="10"/>
<line opacity="0.2" stroke="#000000" stroke-width="1" x1="329" y1="369" x2="329" y2="10"/>
<line opacity="0.2" stroke="#000000" stroke-width="1" x1="389" y1="369" x2="389" y2="10"/>
<line opacity="0.2" stroke="#000000" stroke-width="1" x1="30" y1="369" x2="389" y2="369"/>
<line opacity="0.2" stroke="#000000" stroke-width="1" x1="30" y1="310" x2="389" y2="310"/>
<line opacity="0.2" stroke="#000000" stroke-width="1" x1="30" y1="250" x2="389" y2="250"/>
<line opacity="0.2" stroke="#000000" stroke-width="1" x1="30" y1="190" x2="389" y2="190"/>
<line opacity="0.2" stroke="#000000" stroke-width="1" x1="30" y1="130" x2="389" y2="130"/>
<line opacity="0.2" stroke="#000000" stroke-width="1" x1="30" y1="70" x2="389" y2="70"/>
<line opacity="0.2" stroke="#000000" stroke-width="1" x1="30" y1="10" x2="389" y2="10"/>
<polyline fill="none" opacity="1" stroke="#000000" stroke-width="1" points="29,10 29,369 "/>
<text x="20" y="369" dy="0.5ex" text-anchor="end" font-family="sans-serif" font-size="9.67741935483871" opacity="1" fill="#000000">
-3.0
</text>
<polyline fill="none" opacity="1" stroke="#000000" stroke-width="1" points="24,369 29,369 "/>
<text x="20" y="310" dy="0.5ex" text-anchor="end" font-family="sans-serif" font-size="9.67741935483871" opacity="1" fill="#000000">
-2.0
</text>
<polyline fill="none" opacity="1" stroke="#000000" stroke-width="1" points="24,310 29,310 "/>
<text x="20" y="250" dy="0.5ex" text-anchor="end" font-family="sans-serif" font-size="9.67741935483871" opacity="1" fill="#000000">
-1.0
</text>
<polyline fill="none" opacity="1" stroke="#000000" stroke-width="1" points="24,250 29,250 "/>
<text x="20" y="190" dy="0.5ex" text-anchor="end" font-family="sans-serif" font-size="9.67741935483871" opacity="1" fill="#000000">
0.0
</text>
<polyline fill="none" opacity="1" stroke="#000000" stroke-width="1" points="24,190 29,190 "/>
<text x="20" y="130" dy="0.5ex" text-anchor="end" font-family="sans-serif" font-size="9.67741935483871" opacity="1" fill="#000000">
1.0
</text>
<polyline fill="none" opacity="1" stroke="#000000" stroke-width="1" points="24,130 29,130 "/>
<text x="20" y="70" dy="0.5ex" text-anchor="end" font-family="sans-serif" font-size="9.67741935483871" opacity="1" fill="#000000">
2.0
</text>
<polyline fill="none" opacity="1" stroke="#000000" stroke-width="1" points="24,70 29,70 "/>
<text x="20" y="10" dy="0.5ex" text-anchor="end" font-family="sans-serif" font-size="9.67741935483871" opacity="1" fill="#000000">
3.0
</text>
<polyline fill="none" opacity="1" stroke="#000000" stroke-width="1" points="24,10 29,10 "/>
<polyline fill="none" opacity="1" stroke="#000000" stroke-width="1" points="30,370 389,370 "/>
<text x="30" y="380" dy="0.76em" text-anchor="middle" font-family="sans-serif" font-size="9.67741935483871" opacity="1" fill="#000000">
-3.0
</text>
<polyline fill="none" opacity="1" stroke="#000000" stroke-width="1" points="30,370 30,375 "/>
<text x="89" y="380" dy="0.76em" text-anchor="middle" font-family="sans-serif" font-size="9.67741935483871" opacity="1" fill="#000000">
-2.0
</text>
<polyline fill="none" opacity="1" stroke="#000000" stroke-width="1" points="89,370 89,375 "/>
<text x="149" y="380" dy="0.76em" text-anchor="middle" font-family="sans-serif" font-size="9.67741935483871" opacity="1" fill="#000000">
-1.0
</text>
<polyline fill="none" opacity="1" stroke="#000000" stroke-width="1" points="149,370 149,375 "/>
<text x="209" y="380" dy="0.76em" text-anchor="middle" font-family="sans-serif" font-size="9.67741935483871" opacity="1" fill="#000000">
0.0
</text>
<polyline fill="none" opacity="1" stroke="#000000" stroke-width="1" points="209,370 209,375 "/>
<text x="269" y="380" dy="0.76em" text-anchor="middle" font-family="sans-serif" font-size="9.67741935483871" opacity="1" fill="#000000">
1.0
</text>
<polyline fill="none" opacity="1" stroke="#000000" stroke-width="1" points="269,370 269,375 "/>
<text x="329" y="380" dy="0.76em" text-anchor="middle" font-family="sans-serif" font-size="9.67741935483871" opacity="1" fill="#000000">
2.0
</text>
<polyline fill="none" opacity="1" stroke="#000000" stroke-width="1" points="329,370 329,375 "/>
<text x="389" y="380" dy="0.76em" text-anchor="middle" font-family="sans-serif" font-size="9.67741935483871" opacity="1" fill="#000000">
3.0
</text>
<polyline fill="none" opacity="1" stroke="#000000" stroke-width="1" points="389,370 389,375 "/>
<circle cx="59" cy="343" r="3" opacity="1" fill="#000000" stroke="none" stroke-width="1"/>
<circle cx="62" cy="316" r="3" opacity="1" fill="#000000" stroke="none" stroke-width="1"/>
<circle cx="80" cy="337" r="3" opacity="1" fill="#000000" stroke="none" stroke-width="1"/>
<circle cx="107" cy="346" r="3" opacity="1" fill="#000000" stroke="none" stroke-width="1"/>
<circle cx="119" cy="319" r="3" opacity="1" fill="#000000" stroke="none" stroke-width="1"/>
<circle cx="128" cy="319" r="3" opacity="1" fill="#000000" stroke="none" stroke-width="1"/>
<circle cx="137" cy="301" r="3" opacity="1" fill="#000000" stroke="none" stroke-width="1"/>
<circle cx="212" cy="262" r="3" opacity="1" fill="#000000" stroke="none" stroke-width="1"/>
<circle cx="221" cy="232" r="3" opacity="1" fill="#000000" stroke="none" stroke-width="1"/>
<circle cx="242" cy="244" r="3" opacity="1" fill="#000000" stroke="none" stroke-width="1"/>
<circle cx="248" cy="202" r="3" opacity="1" fill="#000000" stroke="none" stroke-width="1"/>
<circle cx="269" cy="70" r="3" opacity="1" fill="#000000" stroke="none" stroke-width="1"/>
<circle cx="281" cy="133" r="3" opacity="1" fill="#000000" stroke="none" stroke-width="1"/>
<circle cx="299" cy="106" r="3" opacity="1" fill="#000000" stroke="none" stroke-width="1"/>
<circle cx="314" cy="232" r="3" opacity="1" fill="#000000" stroke="none" stroke-width="1"/>
<circle cx="329" cy="304" r="3" opacity="1" fill="#000000" stroke="none" stroke-width="1"/>
<circle cx="338" cy="292" r="3" opacity="1" fill="#000000" stroke="none" stroke-width="1"/>
<circle cx="359" cy="319" r="3" opacity="1" fill="#000000" stroke="none" stroke-width="1"/>
<circle cx="59" cy="343" r="3" opacity="1" fill="#FF0000" stroke="none" stroke-width="1"/>
<circle cx="61" cy="312" r="3" opacity="1" fill="#FF0000" stroke="none" stroke-width="1"/>
<circle cx="65" cy="320" r="3" opacity="1" fill="#FF0000" stroke="none" stroke-width="1"/>
<circle cx="105" cy="362" r="3" opacity="1" fill="#FF0000" stroke="none" stroke-width="1"/>
<circle cx="113" cy="315" r="3" opacity="1" fill="#FF0000" stroke="none" stroke-width="1"/>
<circle cx="135" cy="322" r="3" opacity="1" fill="#FF0000" stroke="none" stroke-width="1"/>
<circle cx="113" cy="309" r="3" opacity="1" fill="#FF0000" stroke="none" stroke-width="1"/>
<circle cx="222" cy="265" r="3" opacity="1" fill="#FF0000" stroke="none" stroke-width="1"/>
<circle cx="216" cy="223" r="3" opacity="1" fill="#FF0000" stroke="none" stroke-width="1"/>
<circle cx="246" cy="253" r="3" opacity="1" fill="#FF0000" stroke="none" stroke-width="1"/>
<circle cx="245" cy="211" r="3" opacity="1" fill="#FF0000" stroke="none" stroke-width="1"/>
<circle cx="275" cy="21" r="3" opacity="1" fill="#FF0000" stroke="none" stroke-width="1"/>
<circle cx="282" cy="177" r="3" opacity="1" fill="#FF0000" stroke="none" stroke-width="1"/>
<circle cx="305" cy="67" r="3" opacity="1" fill="#FF0000" stroke="none" stroke-width="1"/>
<circle cx="318" cy="317" r="3" opacity="1" fill="#FF0000" stroke="none" stroke-width="1"/>
<circle cx="336" cy="295" r="3" opacity="1" fill="#FF0000" stroke="none" stroke-width="1"/>
<circle cx="339" cy="289" r="3" opacity="1" fill="#FF0000" stroke="none" stroke-width="1"/>
<circle cx="359" cy="319" r="3" opacity="1" fill="#FF0000" stroke="none" stroke-width="1"/>
<polyline fill="none" opacity="1" stroke="#FF0000" stroke-width="1" points="59,343 61,312 65,320 105,362 113,315 135,322 113,309 222,265 216,223 246,253 245,211 275,21 282,177 305,67 318,317 336,295 339,289 359,319 "/>
<polyline fill="none" opacity="1" stroke="#FF0000" stroke-width="1" points="59,343 60,338 60,334 60,330 60,326 61,323 61,321 61,319 61,317 62,316 62,316 62,315 63,316 63,316 63,317 64,319 65,320 67,321 68,323 70,325 72,327 74,330 76,333 79,335 82,338 85,342 88,345 91,347 94,349 97,350 99,351 101,351 103,351 104,350 106,348 107,346 108,343 109,340 110,336 110,333 111,330 112,327 113,325 114,323 115,321 117,320 118,319 120,319 121,318 123,318 124,319 126,319 127,320 128,320 129,320 129,320 129,320 129,319 129,319 128,318 127,318 126,317 124,316 123,315 122,313 122,312 123,310 125,308 128,306 132,304 136,301 141,299 147,296 154,293 162,289 171,286 179,282 186,279 193,275 199,272 204,269 209,265 212,262 215,258 217,255 219,251 219,248 219,244 219,241 219,239 219,236 219,234 220,233 220,232 221,232 223,232 224,232 226,233 228,235 230,237 232,239 235,241 237,242 238,243 240,244 241,244 243,244 244,243 245,241 245,240 246,237 246,235 246,232 246,228 246,223 246,217 247,210 248,202 249,194 250,184 251,174 253,162 255,149 257,136 259,122 261,107 264,94 266,83 267,75 269,69 271,65 272,64 274,64 275,67 276,72 277,80 278,89 278,101 279,112 280,122 280,130 281,136 282,141 284,144 285,145 286,144 288,142 289,137 291,132 293,124 295,116 297,110 298,107 300,105 302,106 303,110 305,116 306,124 307,134 309,147 310,162 311,179 312,198 313,217 314,234 315,249 316,262 317,274 318,284 320,292 321,298 322,303 324,306 325,307 326,306 328,305 329,303 330,302 332,300 333,299 334,298 334,296 335,295 336,295 336,294 337,293 337,292 338,292 338,292 339,292 340,293 341,294 342,295 344,297 346,300 348,303 350,306 353,310 356,314 359,319 "/>
<circle cx="59" cy="343" r="2" opacity="1" fill="none" stroke="#FF0000" stroke-width="1"/>
<circle cx="63" cy="316" r="2" opacity="1" fill="none" stroke="#FF0000" stroke-width="1"/>
<circle cx="85" cy="341" r="2" opacity="1" fill="none" stroke="#FF0000" stroke-width="1"/>
<circle cx="109" cy="339" r="2" opacity="1" fill="none" stroke="#FF0000" stroke-width="1"/>
<circle cx="124" cy="319" r="2" opacity="1" fill="none" stroke="#FF0000" stroke-width="1"/>
<circle cx="124" cy="316" r="2" opacity="1" fill="none" stroke="#FF0000" stroke-width="1"/>
<circle cx="168" cy="287" r="2" opacity="1" fill="none" stroke="#FF0000" stroke-width="1"/>
<circle cx="219" cy="244" r="2" opacity="1" fill="none" stroke="#FF0000" stroke-width="1"/>
<circle cx="231" cy="238" r="2" opacity="1" fill="none" stroke="#FF0000" stroke-width="1"/>
<circle cx="246" cy="232" r="2" opacity="1" fill="none" stroke="#FF0000" stroke-width="1"/>
<circle cx="260" cy="116" r="2" opacity="1" fill="none" stroke="#FF0000" stroke-width="1"/>
<circle cx="278" cy="99" r="2" opacity="1" fill="none" stroke="#FF0000" stroke-width="1"/>
<circle cx="293" cy="122" r="2" opacity="1" fill="none" stroke="#FF0000" stroke-width="1"/>
<circle cx="311" cy="192" r="2" opacity="1" fill="none" stroke="#FF0000" stroke-width="1"/>
<circle cx="327" cy="306" r="2" opacity="1" fill="none" stroke="#FF0000" stroke-width="1"/>
<circle cx="337" cy="292" r="2" opacity="1" fill="none" stroke="#FF0000" stroke-width="1"/>
<circle cx="359" cy="319" r="2" opacity="1" fill="none" stroke="#FF0000" stroke-width="1"/>
<line opacity="1" stroke="#FF0000" stroke-width="1" x1="327" y1="306" x2="333" y2="299"/>
<polygon opacity="1" fill="#FF0000" points="333,299 324,303 331,309 333,299 "/>
</svg>
